<svg xmlns="http://www.w3.org/2000/svg" xmlns:xlink="http://www.w3.org/1999/xlink" xmlns:sketch="http://www.bohemiancoding.com/sketch/ns" width="240px" height="68px" viewBox="0 0 240 68" version="1.1">
    <!-- Generator: Sketch 3.3 (11970) - http://www.bohemiancoding.com/sketch -->
    <title>Artboard 10</title>
    <desc>Created with Sketch.</desc>
    <defs/>
    <g id="Page-1" stroke="none" stroke-width="1" fill="none" fill-rule="evenodd" sketch:type="MSPage">
        <g id="Artboard-10" sketch:type="MSArtboardGroup" fill="#000000">
            <g id="Imported-Layers-Copy" sketch:type="MSLayerGroup">
                <path d="M160.7 57.4 C160.8 57.5 160.8 57.4 160.8 57.4 M156 58.7 C157.6 59 158.8 57.1 159.4 55.7 C158.6 55 158.4 52.7 159.8 52 C162 53.8 159.3 55.9 158.6 57.8 C161.1 57.7 163 55.4 164.3 52.2 C163.9 51.2 163.7 49.6 164.9 48.6 C165.3 48.7 165.6 49.1 165.8 49.4 C165.7 50 166 50.7 165.5 51.5 C165.2 51.8 164.8 52 164.6 52.4 C163.7 53.5 163.5 55.3 162.4 56.2 C164.8 55.4 165.7 54.2 167.1 52.5 C168 51.2 167.5 48.6 169.2 48.8 C170.4 49.9 168.9 52 167.6 52 C166.8 53.2 166.3 54.1 165.4 54.8 C166.2 55.3 167.5 54.3 168.6 54.4 C169 54.4 170.1 54.9 169.8 55.8 C169.4 57 167.2 56.2 166.7 55.2 C165.1 55 163.7 55.9 162.4 56.9 C163.6 57.7 167.5 56.3 167.4 59.3 C166.9 59.6 166.2 59.7 165.5 59.2 C165 58.8 164.9 58 164.5 57.7 C163.9 57.3 162.2 57.3 161.4 57.4 C160.3 57.6 159.6 58.3 158.7 58.6 C158.6 58.6 158.6 58.6 158.6 58.5 C158.5 58.6 158.7 58.6 158.7 58.6 C159.3 58.6 160.3 59.1 161.5 59.5 C162.5 59.7 164.4 59.1 164.9 60.5 C165.7 62.6 161.6 61.4 161.7 59.8 C159.9 59.3 158.3 58.9 156.7 59.1 C156.6 59.1 156.7 59.3 156.7 59.1 " id="Fill-1" sketch:type="MSShapeGroup"/>
                <path d="M157.8 58.9 C155.9 58.8 154.3 59.3 153.4 62 C154.9 62.8 153.6 66.9 152.2 64.5 C152.3 62.8 153.2 61.4 154.2 59.6 C152.8 59.4 151.7 61.5 151.1 63.3 C151.7 64.2 151.3 66.8 149.8 66.7 C149.4 66.1 149.3 65.2 149.5 64.7 C149.7 64.1 150.4 63.9 150.7 63.4 C151.2 62.4 151.3 61.2 152 60.3 C151.1 60.9 150.3 61.7 149.5 62.2 C149.4 63.7 147.7 65.2 146.4 64.6 C146.1 62.9 148.1 61.8 149.4 62 C149.7 61.3 150.6 61.1 150.8 60.6 C149.2 60.5 147.8 61.1 146.2 60.8 C146 60.3 145.5 60 145.5 59.5 C146.5 58.5 148.1 59 149.4 60.3 C150.6 60.2 151.9 60.1 153 59.4 C151.3 58.9 148.8 59.1 147.9 57.4 C148 57 147.8 56.7 148.1 56.3 C149.3 55.5 151 57.1 150.9 58.5 C152.3 59.1 153.7 59.2 155 58.7 L157.8 58.9 " id="Fill-2" sketch:type="MSShapeGroup"/>
                <path d="M156.1 58.9 C156.3 58.8 157 58 156.7 57 C156.3 56.1 155.6 56.3 155.6 56.1 C155.6 56.1 153.7 58.2 155.1 58.8 " id="Fill-3" sketch:type="MSShapeGroup"/>
                <path d="M156 59.1 C156 59.1 157.5 58.4 157.8 60.1 C158.1 61.8 157.7 61.8 157.7 61.8 C157.6 61.8 156 61.1 155.6 59.1 " id="Fill-4" sketch:type="MSShapeGroup"/>
            </g>
            <g id="Imported-Layers" sketch:type="MSLayerGroup">
                <path d="M86.4 27.7 C86.1 27.5 85.8 27.3 85.7 26.9 L85.6 26.4 L85.6 22 C85.6 21.2 85.3 20.6 84.8 20.3 C84.4 20.1 84 20 83.4 20 C82.9 20 82.5 20.1 82.1 20.3 C81.8 20.5 81.6 20.7 81.4 21 L81.4 16.3 C81.4 16 81.4 15.8 81.3 15.8 C81.2 15.8 81.1 15.9 80.9 15.9 L80.8 16 C80.4 16.4 80.1 16.6 79.6 16.7 C79.4 16.8 79.2 16.8 79 16.8 L78.6 16.8 C78.5 16.8 78.5 16.9 78.4 16.9 C78.4 17 78.4 17.1 78.5 17.2 L78.6 17.3 C78.9 17.5 79 17.6 79.1 17.7 C79.2 18 79.3 18.3 79.3 18.6 L79.3 26.3 C79.3 26.6 79.3 26.8 79.2 27 C79.1 27.3 78.8 27.5 78.6 27.7 L78.5 27.8 C78.4 27.8 78.4 27.9 78.4 28 C78.4 28 78.5 28.1 78.7 28.1 L81.8 28.1 L82 28 L82.1 28 L82.2 27.9 L82.2 27.8 L82.1 27.7 C81.8 27.6 81.5 27.3 81.4 26.7 L81.4 26.4 L81.4 22.9 C81.4 22.3 81.7 21.8 82.1 21.6 C82.2 21.6 82.3 21.6 82.5 21.6 C82.7 21.6 83 21.7 83.2 21.9 C83.4 22.1 83.5 22.4 83.5 22.7 L83.5 26.4 C83.5 26.7 83.5 27 83.3 27.2 C83.2 27.4 83 27.5 82.8 27.7 L82.7 27.8 C82.7 27.9 82.7 27.9 82.7 27.9 C82.7 27.9 82.7 27.9 82.7 28 C82.7 28 82.8 28.1 83 28.1 L86 28.1 C86.3 28.1 86.5 28 86.5 27.9 L86.4 27.8 L86.4 27.7 " id="Fill-1" sketch:type="MSShapeGroup"/>
                <path d="M98.6 26.2 C98.3 26.7 97.9 27 97.4 27.2 L97.1 27.4 C96.7 27.7 96.5 27.9 96.5 28.1 C96.5 28.2 96.6 28.3 96.7 28.3 L97.2 28.4 L111.1 28.4 L111.4 28.5 C111.8 28.6 112.1 28.7 112.2 28.7 C112.4 28.8 112.5 28.8 112.7 28.8 C113 28.8 113.1 28.7 113.2 28.7 L113.3 28.4 C113.3 28.1 113.1 27.8 112.9 27.5 C112.5 27 112.3 26.5 112.2 26 C112.1 25.6 112 25.3 112 24.9 C112 24.7 111.9 24.4 111.9 24 L112 23.2 C112 22.2 111.8 21.3 111.5 20.5 C111.3 20 110.9 19.6 110.5 19.1 C110 18.7 109.4 18.5 108.9 18.5 C108.8 18.7 108.7 18.8 108.7 19 L108.8 19.6 L108.9 19.9 L109.2 20.5 C109.4 21.1 109.5 21.6 109.5 22.1 C109.5 23 109.3 23.8 108.9 24.4 C108.3 25.4 107.4 25.9 106.2 25.9 C104.9 25.9 103.9 25.4 103.4 24.4 C103.1 23.8 103 23 103 21.9 L103 12.4 C103 11.8 103.1 11.2 103.3 10.7 C103.5 10.1 103.9 9.6 104.4 9.4 C104.8 9.1 105 8.8 105.1 8.6 C105.2 8.4 105.3 8.3 105.3 8.2 C105.2 8.1 105.1 8 104.9 8 C104.8 8 104.6 7.9 104.4 7.9 C103.8 8.2 103.2 8.3 102.7 8.4 L100.9 8.5 C100.7 8.5 100.3 8.5 99.9 8.4 C99.7 8.4 99.4 8.4 98.9 8.3 L98.7 8.3 L97.8 8.1 C97.1 8.1 96.8 8.2 96.7 8.3 C96.7 8.5 96.8 8.7 97 8.9 C97.1 9.1 97.3 9.2 97.4 9.4 C97.5 9.4 97.5 9.5 97.6 9.5 C97.7 9.6 97.7 9.7 97.8 9.7 C98.2 9.9 98.4 10.3 98.6 10.7 C98.8 11.1 98.9 11.7 98.9 12.5 L98.9 24.9 C98.9 25.4 98.8 25.8 98.6 26.2 " id="Fill-2" sketch:type="MSShapeGroup"/>
                <path d="M123.3 28.4 L127 28.4 C127.4 28.4 127.6 28.3 127.6 28.1 C127.5 28 127.4 27.9 127.2 27.7 L126.8 27.5 C126.5 27.3 126.2 26.9 126 26.3 C126 26.1 125.9 25.8 125.8 25.3 L124.8 18.4 C124.6 16.9 124.1 15.8 123.3 15.2 C122.7 14.8 122.1 14.6 121.3 14.6 C120.6 14.8 120.1 14.9 119.7 15 L118.4 15.1 C118.2 15.1 117.8 15.1 117.5 15 C117.2 15 116.9 14.9 116.6 14.8 C116.3 14.7 115.9 14.6 115.6 14.4 C115.2 14.5 114.9 14.8 114.8 15.1 C114.7 15.3 114.7 15.7 114.7 16.1 C114.8 16.7 114.9 17.2 115.1 17.6 C115.6 18.6 116.4 19.1 117.5 19.1 L118.4 18.9 C118.8 18.7 119 18.5 119.1 18.2 C118.8 18.1 118.6 18 118.5 17.9 C118.5 17.7 118.4 17.5 118.4 17.4 C118.4 17.1 118.5 16.9 118.6 16.8 C118.7 16.7 118.9 16.7 119.2 16.7 C119.7 16.7 120.1 16.8 120.4 16.9 C120.7 17.1 120.8 17.5 120.9 18.1 L121.7 22.5 L121.8 23 L121.8 23.6 C121.8 24.2 121.7 24.7 121.4 25.1 C121 25.7 120.5 26.1 119.7 26.2 C119 26.2 118.4 25.8 118.1 25.1 C118 24.9 117.9 24.6 117.9 24.1 C117.9 23.4 118.1 22.9 118.5 22.6 C118.6 22.6 118.8 22.5 119.1 22.5 C119.4 22.5 119.7 22.6 120 22.7 C120.2 22.8 120.4 23.1 120.5 23.4 L120.7 23.3 C121 23.1 121.1 22.8 121.1 22.5 C121.1 21.6 120.9 21 120.4 20.4 C119.9 19.9 119.3 19.6 118.4 19.6 C117.5 19.6 116.7 19.9 116 20.3 C114.7 21.1 114.1 22.4 114.1 24.2 C114.3 24.9 114.4 25.4 114.4 25.6 C114.5 26 114.6 26.3 114.8 26.5 C115.5 28 116.9 28.7 118.7 28.7 C120.2 28.7 121.3 28.2 122 27.2 L122.4 26.6 C122.4 27 122.5 27.4 122.6 27.8 C122.7 28.2 122.9 28.4 123.3 28.4 " id="Fill-3" sketch:type="MSShapeGroup"/>
                <path d="M110 38.1 C109.2 38.1 108.5 38.3 108.1 38.8 C107.6 39.3 107.4 39.9 107.4 40.7 C107.4 41.4 107.5 42 107.8 42.4 C108.2 43.1 109 43.4 110.1 43.4 L110.2 42.6 C110.5 42 110.9 41.8 111.4 41.8 C111.9 41.8 112.4 42 112.8 42.5 C113.1 43 113.3 43.7 113.3 44.5 L113.3 45.2 C113.3 46.8 112.6 47.8 111.3 48.2 C111 48.3 110.7 48.4 110.4 48.4 C108.8 48.4 107.7 47.7 107 46.2 C106.6 45.4 106.4 44.2 106.4 42.7 C106.4 42 106.5 41.3 106.7 40.7 L107 40 L107.1 39.8 L107.1 39.6 C107.1 39.6 107 39.5 106.9 39.4 L106.7 39.5 L106.4 39.7 C105.5 40.6 104.9 41.7 104.5 43.1 C104.3 43.9 104.2 44.8 104.2 45.7 C104.3 46 104.3 46.2 104.3 46.5 C104.4 46.6 104.4 46.6 104.4 46.7 C104.4 46.9 104.4 47.1 104.5 47.4 C104.8 48.7 105.3 49.8 106.1 50.5 C107.2 51.6 108.6 52.1 110.4 52.1 C112 52.1 113.2 51.5 114 50.2 C114.9 49 115.3 47.3 115.3 45.3 C115.3 43 114.8 41.2 113.8 39.9 C112.8 38.7 111.6 38.1 110 38.1 " id="Fill-4" sketch:type="MSShapeGroup"/>
                <path d="M122 51.2 C121.4 51.1 120.9 50.5 120.8 49.6 L120.8 49 L120.7 31.6 C120.7 31.1 120.7 30.8 120.6 30.8 C120.4 30.8 120.2 30.9 120 31 L119.7 31.2 C119.2 31.7 118.6 32.1 118 32.3 C117.9 32.3 117.9 32.3 117.9 32.3 C117.8 32.3 117.7 32.3 117.7 32.4 C117 32.5 116.4 32.5 115.9 32.4 C113.8 32.1 111.7 31.9 109.8 33.1 C108.7 33.8 108.4 34.9 109.3 35.8 C109.3 35.9 109.4 35.9 109.4 35.9 C108.9 36 108.4 36 107.9 36 C106.3 36.1 104.8 35.6 103.8 34.3 C103.5 34 102.2 34.5 102.4 34.8 C103.6 36.2 105.5 36.6 107.3 36.6 C108.2 36.6 109.1 36.5 109.9 36.3 C109.9 36.3 109.9 36.3 109.9 36.3 C110.7 36.7 111.7 36.8 112.4 36.8 C113.3 36.8 114.6 36.5 115.1 35.7 C115.6 34.8 113 35 112.7 35 C112.1 35.1 111.5 35.3 110.9 35.5 C110.4 35.2 110 34.7 110.2 34 C110.5 32.7 112.4 32.7 113.4 32.8 C113.8 32.8 114.3 32.9 114.7 32.9 C115.3 33.1 116.3 33.4 116.8 34.2 C117 34.6 117.2 35.1 117.2 35.6 L117.2 48.8 C117.2 49.3 117.1 49.7 117 50 C116.7 50.5 116.4 51 115.9 51.2 L115.7 51.4 C115.6 51.5 115.6 51.6 115.6 51.8 C115.7 51.8 115.8 51.9 116.1 51.9 L121.5 51.9 L121.8 51.8 L122 51.8 L122.2 51.6 L122.1 51.4 L122 51.2 L122 51.2 ZM113.5 35.6 C114 35.9 113.5 36.2 113.1 36.2 C112.6 36.2 112.2 36.1 111.7 35.9 C111.6 35.9 111.5 35.9 111.4 35.8 C112.1 35.6 112.8 35.4 113.5 35.6 L113.5 35.6 Z" id="Fill-5" sketch:type="MSShapeGroup"/>
                <path d="M129.5 51.5 C128.9 51.3 128.4 51 128.3 50.4 L128.2 50 L128.2 39 C128.2 38.6 128.2 38.4 128 38.4 L127.4 38.6 L127.2 38.7 C126.6 39.1 125.9 39.4 125.1 39.5 C124.9 39.6 124.5 39.6 124.1 39.6 L123.6 39.6 C123.4 39.6 123.3 39.6 123 39.7 L123.3 40 L123.4 40.1 L124 40.4 C124.4 40.7 124.6 41.1 124.6 41.6 L124.6 49.9 C124.6 50.2 124.6 50.5 124.4 50.7 C124.2 51 123.9 51.3 123.4 51.5 L123.1 51.6 L123 51.8 C123.1 51.8 123.2 51.9 123.4 51.9 L129.2 51.9 L129.5 51.8 L129.7 51.6 L129.6 51.6 L129.5 51.5 " id="Fill-6" sketch:type="MSShapeGroup"/>
                <path d="M144 51.2 L143.4 50.7 C143.1 50.5 143 50.2 142.9 49.9 L142.8 49.1 L142.8 42.8 L142.9 42.2 C142.9 40.8 142.5 39.8 141.8 39.1 C141.1 38.4 140.1 38.1 138.9 38.1 L137.8 38.3 C136.9 38.5 136.2 39 135.8 39.7 L135.8 38.2 L135.7 38 C135.7 37.9 135.7 37.9 135.7 37.9 C135.6 37.9 135.6 37.9 135.5 37.8 L135.3 37.9 L135.1 38.1 C134.7 38.5 134.4 38.8 134.1 38.9 C133.3 39.4 132.4 39.7 131.4 39.7 L131.1 39.7 C130.8 39.8 130.6 39.9 130.6 40 C130.6 40.1 130.7 40.2 130.8 40.4 L131.2 40.7 L131.7 41.1 C132 41.5 132.2 42.1 132.2 42.7 L132.2 49.1 C132.2 49.6 132.1 50 131.9 50.3 C131.7 50.7 131.4 51 131.1 51.1 L130.9 51.3 L130.7 51.7 C130.7 51.8 131 51.9 131.5 51.9 L136.7 51.9 C137 51.8 137.2 51.7 137.2 51.6 L137.1 51.2 L136.9 51.1 C136.6 50.9 136.3 50.6 136.1 50.2 C135.9 49.8 135.8 49.5 135.8 49 L135.8 42.8 C135.8 42.2 136 41.7 136.3 41.3 C136.6 40.9 137 40.8 137.5 40.8 C137.8 40.8 138 40.8 138.1 40.9 C138.3 40.9 138.4 41 138.6 41.1 C139 41.4 139.2 42 139.2 42.9 L139.2 49.1 C139.2 49.5 139.1 49.8 139 50.1 C138.8 50.6 138.5 50.9 138 51.1 L137.9 51.3 L137.9 51.6 C137.9 51.7 138.1 51.8 138.4 51.9 L143.6 51.9 L144 51.8 C144.1 51.7 144.2 51.7 144.2 51.6 L144.1 51.3 L144 51.2 " id="Fill-7" sketch:type="MSShapeGroup"/>
                <path d="M155.6 46.5 L155.2 46.7 L155 46.9 C154.1 47.9 153.2 48.5 152.2 48.9 C152.1 48.9 151.8 49 151.5 49 C150 49 148.9 48.4 148.2 47.2 C148 46.7 147.9 46.1 147.8 45.3 L148.6 46.1 C149.2 46.5 149.9 46.7 150.6 46.7 L151.1 46.7 C152.1 46.3 152.8 46 153.2 45.7 C154 45.2 154.6 44.6 155 44 C155.4 43.4 155.6 42.7 155.6 42 L155.6 41.4 C155.6 40.5 155.4 39.8 155.1 39.3 L154.7 38.7 C154.2 38.8 153.9 38.8 153.7 38.8 C153.2 38.8 152.8 38.7 152.4 38.5 L151.9 38.3 C151.9 38.2 151.7 38.1 151.4 38.1 C151.1 38.1 150.8 38.1 150.4 38.1 C150 38.1 149.5 38.1 148.9 38.3 C147.7 38.7 146.8 39.3 146.1 40.2 C145.1 41.4 144.6 43.1 144.6 45.2 L144.8 47 C145.2 48.3 145.7 49.5 146.4 50.3 C147.4 51.5 148.7 52.1 150.4 52.1 C151.6 52.1 152.7 51.6 153.7 50.6 C155 49.3 155.7 48.2 155.7 47.3 L155.8 46.7 C155.7 46.6 155.7 46.5 155.6 46.5 L155.6 46.5 ZM147.8 41.6 C147.9 41.3 148 41.1 148.1 40.8 C148.5 40.1 149.2 39.8 150.2 39.8 C150.9 39.8 151.4 40 151.8 40.5 C152.1 40.9 152.3 41.6 152.3 42.4 C152.1 43.6 151.6 44.4 150.7 44.8 L150 44.9 C149.6 44.9 149.3 44.8 149.1 44.6 C148.3 43.9 148.8 43 148.8 43 C148.9 42.8 149 42.8 149.1 42.8 L149.4 42.9 L149.6 43 L149.9 43.2 C150 43.2 150.1 43.2 150.3 43.2 L150.5 43.1 C150.6 43 150.7 42.9 150.7 42.7 C150.7 42.3 150.5 42 150.3 41.9 C150 41.8 149.6 41.8 149.2 41.8 C149 41.8 148.7 41.8 148.4 41.9 C148.2 42.1 147.9 42.3 147.7 42.6 C147.7 42.2 147.8 41.8 147.8 41.6 L147.8 41.6 Z" id="Fill-8" sketch:type="MSShapeGroup"/>
                <path d="M127.7 7.6 C127.9 7.6 128 7.7 128.2 7.8 C127.6 9.4 129.4 10.5 130.9 10.6 C132.6 10.8 134.8 10.2 135.8 8.8 C136.1 8.4 134.7 8.6 134.5 8.9 C133.7 9.9 132.5 10.2 131.3 9.9 C130.3 9.7 129.6 9 129.6 8 C130.9 8.2 132.2 8 133.3 7.5 C133.9 7.2 134.6 6.8 134.7 6.2 C135 5.4 133.7 5.1 133.2 5.1 C131.6 4.9 129.7 5.6 128.7 6.9 C128.2 6.7 127.8 6.4 127.5 5.9 C126.7 4.9 127.1 3.1 128.5 2.8 C129.7 2.6 131.1 2.9 132.2 3.3 C132.7 3.4 133.3 3.7 133.8 3.9 C134.8 4.3 136.6 5.5 136.6 7.7 L136.6 9.6 L136.6 16 C136.2 15.6 136 15.4 135.8 15.3 C135.1 14.8 134.4 14.5 133.5 14.5 L132.8 14.6 C131.3 14.6 130.1 15.2 129.2 16.3 C128.4 17.5 127.9 19.2 127.9 21.4 L127.9 22.2 C127.9 23.8 128.2 25.2 128.7 26.3 C129.5 27.9 130.9 28.7 132.8 28.7 C134 28.7 135 28.3 135.8 27.6 C136 27.4 136.3 27 136.6 26.5 L136.7 27.6 C136.8 27.9 137 28.2 137.2 28.4 L141.2 28.4 L141.7 28.4 C141.9 28.3 142 28.3 142 28.2 C142 28.1 141.8 27.9 141.5 27.7 C141 27.4 140.7 27.1 140.6 26.6 C140.4 26.2 140.3 25.9 140.3 25.6 C140.3 25.5 140.3 25.2 140.3 24.8 L140.3 3.7 C140.3 3.6 140.3 3.5 140.3 3.3 C140.3 3.2 140.3 3 140.3 2.8 C140.3 2.7 140.3 2.5 140.3 2.3 C140.2 2.2 140.2 2.1 140.1 2.1 C140 2.1 139.8 2.2 139.7 2.3 C139.6 2.4 139.5 2.5 139.3 2.6 C139.1 2.8 138.6 3.1 138.6 3.1 C138.4 3.2 138.1 3.3 137.8 3.3 C137 3.5 135.8 3.5 134.5 3 C134.1 2.9 133.7 2.8 133.3 2.7 C132.6 2.5 132 2.3 131.3 2.2 C129.6 2 127.2 2.1 126.1 3.6 C124.9 5.2 126 7 127.7 7.6 L127.7 7.6 ZM133 6 C133.6 6.3 133 6.9 132.7 7.1 C132.1 7.5 131.3 7.4 130.6 7.4 C130.3 7.4 130.1 7.3 129.8 7.3 C130.3 6 131.8 5.3 133 6 L133 6 ZM136.2 24.1 C135.8 25.3 135.1 25.9 134.1 25.9 C133.4 25.9 132.9 25.7 132.5 25.3 C131.8 24.7 131.5 23.6 131.5 22.2 L131.5 21.3 C131.5 19.9 131.7 18.8 132.1 18 C132.5 17.2 133 16.8 133.7 16.8 L134.2 16.7 C134.6 16.7 134.9 16.8 135.2 17.1 C135.5 17.3 135.6 17.6 135.6 18.1 L135.4 18.7 C135.2 19 134.9 19.2 134.4 19.2 L133.7 19.1 C133.5 19.1 133.4 19.2 133.4 19.3 C133.4 19.4 133.5 19.6 133.7 19.9 L134.1 20.3 C134.3 20.4 134.5 20.4 134.7 20.4 C135.2 20.4 135.6 20.3 136.1 19.9 L136.6 19.4 L136.7 20.9 C136.7 22.1 136.5 23.2 136.2 24.1 L136.2 24.1 Z" id="Fill-9" sketch:type="MSShapeGroup"/>
                <path d="M129.7 37.6 C133 37.3 136.2 36.9 139.4 35.9 C140.6 35.6 141.8 35.2 142.9 34.7 C144.3 34.1 146.7 33 149.1 31.2 L149.1 31.3 C149.1 31.2 149.2 31.1 149.3 31.1 C149.3 31 149.3 31 149.3 31 C149.4 31 149.5 30.9 149.6 30.8 C149.7 30.8 149.8 30.7 149.9 30.6 C151.3 29.3 152.7 27.8 153.6 25.9 C154.2 24.7 154.6 23.5 154.9 22.5 C154.9 22.5 154.9 22.4 154.9 22.4 C154.9 22.3 155 22.2 155 22.1 C155.2 21.2 155.3 20.3 155.4 19.5 C155.4 19.3 155.4 19.2 155.4 19 C155.4 17.6 155.1 16.5 154.5 15.8 C154 15 153.2 14.6 152.3 14.6 C151.3 14.6 150.6 14.9 150 15.3 C149.5 15.7 149.2 16.3 149.2 17.1 L149.2 17.3 C149.4 17.8 149.5 18.2 149.5 18.3 C149.9 19 150.5 19.3 151.2 19.3 L151.3 19.1 C151.5 18.9 151.6 18.8 151.7 18.8 C152.1 18.8 152.4 18.9 152.6 19.1 C152.8 19.3 152.8 19.6 152.8 20.2 L152.6 21.7 C152.4 23 152 24.1 151.5 25.2 L146.2 15 C146 14.6 145.8 14.4 145.6 14.4 C145.5 14.4 145.4 14.5 145.3 14.6 L145.2 14.8 C144.8 15.7 144 16.3 143 16.8 L142.4 17 L141.9 17.1 C141.8 17.2 141.8 17.2 141.6 17.4 L141.6 17.5 C141.6 17.7 141.9 17.8 142.5 17.9 L143.2 18.1 C143.8 18.4 144.2 18.8 144.4 19.3 L147.4 25.2 C147.5 25.5 147.6 25.8 147.6 25.9 L147.5 26.3 L147.4 26.7 L147.4 26.9 L147.5 27.3 C147.6 27.5 147.8 27.6 148 27.7 C148.3 27.8 148.5 27.8 148.8 27.8 L149.6 27.7 C149.3 28.2 148.3 29.4 146.7 30.6 C142.8 33.1 138.6 34.7 133.9 35.4 C132 35.7 130 36 128 35.9 C127.3 35.9 126.5 35.8 126 35.3 C125.7 35.1 125.5 34.8 125.5 34.5 C125.7 34.6 125.9 34.6 126.1 34.6 C126.9 34.6 127.5 34.1 127.5 33.5 C127.5 33.4 127.5 33.3 127.5 33.1 C127.5 33.1 127.5 33.1 127.4 33 C126.2 30.3 121.6 33.4 123 35.8 C124.1 38 127.6 37.8 129.7 37.6 " id="Fill-10" sketch:type="MSShapeGroup"/>
                <path d="M88.2 27.2 C88.8 27.9 89.6 28.3 90.6 28.3 C91.3 28.3 91.9 28 92.5 27.4 C93.3 26.6 93.7 26 93.7 25.5 L93.7 25.1 C93.7 25 93.7 25 93.7 25 L93.4 25.1 L93.3 25.2 C92.8 25.8 92.2 26.2 91.7 26.4 C91.6 26.4 91.4 26.4 91.3 26.5 C90.4 26.5 89.7 26.1 89.3 25.4 C89.2 25.1 89.1 24.8 89.1 24.3 L89.5 24.7 C89.9 25 90.3 25.1 90.7 25.1 L91 25.1 C91.6 24.9 92 24.7 92.3 24.5 C92.7 24.2 93.1 23.9 93.3 23.5 C93.5 23.2 93.6 22.8 93.6 22.3 L93.7 22 C93.7 21.5 93.6 21.1 93.4 20.7 L93.1 20.4 C92.9 20.4 92.7 20.5 92.5 20.5 C92.3 20.5 92 20.4 91.8 20.3 L91.5 20.2 C91.5 20.1 91.3 20.1 91.2 20.1 C91 20 90.8 20 90.6 20 C90.4 20 90.1 20.1 89.7 20.2 C89 20.4 88.5 20.8 88.1 21.3 C87.5 22 87.2 23 87.2 24.2 L87.3 25.3 C87.5 26.1 87.8 26.7 88.2 27.2 L88.2 27.2 ZM89.1 22.1 C89.1 21.9 89.2 21.8 89.3 21.6 C89.5 21.2 89.9 21 90.5 21 C90.9 21 91.2 21.2 91.4 21.4 C91.6 21.7 91.7 22.1 91.7 22.6 C91.6 23.3 91.3 23.8 90.8 24 L90.4 24 C90.2 24 90 23.9 89.9 23.8 C89.4 23.5 89.7 22.9 89.7 22.9 C89.7 22.8 89.8 22.8 89.9 22.8 L90 22.8 L90.1 22.9 L90.3 23 C90.4 23 90.5 23 90.5 23 L90.7 23 C90.7 22.9 90.8 22.8 90.8 22.7 C90.8 22.5 90.7 22.4 90.5 22.3 C90.3 22.2 90.1 22.2 89.9 22.2 C89.8 22.2 89.6 22.2 89.4 22.3 C89.3 22.4 89.1 22.5 89 22.7 C89 22.4 89.1 22.2 89.1 22.1 L89.1 22.1 Z" id="Fill-11" sketch:type="MSShapeGroup"/>
                <path d="M95.1 51.7 L94.7 52 C94.5 52.2 94.3 52.3 94.1 52.4 C93.9 52.5 93.7 52.5 93.4 52.5 C92.9 52.5 92.6 52.4 92.5 52 C92.3 51.7 92.3 51.3 92.3 50.9 L92.3 40 C94.3 39.8 94.7 39.4 95 38.5 C95.3 37.6 94.3 38.2 93.8 38.3 C93.4 38.4 92.3 38.3 92.3 38.3 L92.2 33.9 C92.2 33.7 92.2 33.5 92.2 33.5 C92.2 33.4 92.1 33.3 92.1 33.3 L91.8 33.2 C91.6 33.2 91.4 33.4 91.2 33.7 L91 34.1 C91 35.3 90.6 36.2 90 37.1 C89.3 37.9 89 38.5 87.8 38.7 C87.8 38.7 87.6 38.7 87.4 38.9 C87.1 39.1 86.8 39.6 87.4 39.9 C87.5 40 87.7 40 87.8 40 L88.8 40 L88.8 51.8 C88.9 52.6 89 53.1 89.2 53.3 C89.7 54.3 90.6 54.8 91.8 54.8 C92.5 54.8 93.1 54.6 93.6 54.4 C94.4 54 94.9 53.4 95 52.5 C95.1 52.4 95.2 52.3 95.2 52.2 L95.2 51.7 L95.1 51.7 L95.1 51.7 " id="Fill-12" sketch:type="MSShapeGroup"/>
                <path d="M103.2 48.5 L102.8 48.7 C102.6 48.9 102.4 49 102.2 49.1 C102 49.2 101.8 49.2 101.5 49.3 C101 49.3 100.7 49.1 100.6 48.7 C100.5 48.4 100.4 48 100.4 47.6 L100.4 40 C102.4 39.8 102.8 39.4 103.1 38.5 C103.4 37.6 102.4 38.2 101.9 38.3 C101.5 38.4 100.4 38.3 100.4 38.3 L100.3 33.9 C100.3 33.7 100.3 33.5 100.3 33.5 C100.3 33.4 100.3 33.3 100.2 33.3 L99.9 33.2 C99.7 33.2 99.5 33.4 99.3 33.7 L99.1 34.1 C99.1 35.3 98.8 36.2 98.1 37.1 C97.4 37.9 97.1 38.5 95.9 38.7 C95.9 38.7 95.7 38.7 95.6 38.9 C95.3 39.1 94.9 39.6 95.6 39.9 C95.6 40 95.8 40 95.9 40 L96.9 40 L96.9 48.6 C97 49.3 97.1 49.8 97.3 50 C97.8 51 98.7 51.5 99.9 51.5 C100.6 51.5 101.2 51.4 101.7 51.1 C102.5 50.8 103 50.1 103.2 49.2 C103.2 49.1 103.3 49 103.3 48.9 L103.3 48.5 L103.2 48.4 L103.2 48.5 " id="Fill-13" sketch:type="MSShapeGroup"/>
                <path d="M80.4 31.5 C79.4 31.2 78.4 31 77.2 31 C76.2 31 75.2 31.2 74.3 31.5 C72.6 32 71.2 32.9 70.2 34.1 C68.8 35.8 68.1 38.1 68.1 41 C68.1 42.3 68.3 43.6 68.6 44.8 C69.1 46.7 70 48.3 71.2 49.5 C72.8 51.1 74.9 51.8 77.6 51.8 C78.4 51.8 79.2 51.7 80.2 51.4 C81.9 50.8 83.2 49.9 84.2 48.6 C85.6 46.7 86.3 44.2 86.3 41.1 C86.3 38.2 85.7 35.9 84.4 34.2 C83.4 32.9 82 32 80.4 31.5 L80.4 31.5 ZM80.7 47.7 C79.9 49.4 78.8 50.2 77.5 50.2 C75.9 50.2 74.7 49.3 73.9 47.7 C73 46 72.6 43.7 72.6 41 C72.6 38.1 73.1 35.9 74.1 34.5 C74 34.9 74 35.3 74 35.7 C74 37.9 74.5 39.7 75.4 40.9 C76.4 42.1 77.6 42.7 79.1 42.7 C80 42.7 80.6 42.5 81 42 C81.5 41.6 81.7 40.9 81.7 40.1 C81.7 39.4 81.6 38.9 81.3 38.5 C80.9 37.9 80.2 37.5 79.1 37.5 L78.9 38.3 C78.7 38.9 78.3 39.1 77.8 39.1 C77.3 39.1 76.8 38.9 76.5 38.4 C76.1 37.9 76 37.2 76 36.4 L76 35.8 C76 34.3 76.6 33.3 77.9 32.8 C77.9 32.8 77.9 32.8 77.9 32.8 C78.8 33 79.5 33.4 80 34 C81.3 35.4 81.9 37.7 81.9 41 C81.9 43.9 81.5 46.1 80.7 47.7 L80.7 47.7 Z" id="Fill-14" sketch:type="MSShapeGroup"/>
                <path d="M68.6 17.5 C70.8 17.6 72.7 18.5 72.7 18.5 C72.7 18.5 72.8 18.5 72.9 18.6 C72.9 18.7 72.9 18.8 72.7 18.9 C72.3 19 71.3 19.6 71 20.1 C71 20.2 71 20.2 71 20.3 L71 20.3 C71 20.3 70.8 20.7 71.1 20.9 C71.4 20.9 71.6 21 71.7 21.3 C71.8 21.4 71.8 21.5 71.8 21.7 L71.8 25.9 C71.8 26.2 71.7 26.6 71.5 26.8 C71.3 27.1 71.1 27.3 70.8 27.4 L70.6 27.5 C70.4 27.6 70.3 27.7 70.3 27.7 L70.3 27.8 C70.3 27.9 70.5 28 70.8 28.1 L75.3 28.1 L75.7 27.9 C75.7 27.9 75.8 27.9 75.8 27.8 L75.8 27.8 C75.8 27.7 75.8 27.6 75.6 27.6 L75.4 27.5 C74.8 27.2 74.4 26.8 74.3 26.2 L74.2 25.8 L74.3 20.1 C74.3 19.6 74.4 19.3 74.6 19.1 L74.8 19 C75.7 18.8 76.5 18.4 77.3 17.7 C77.6 17.4 78 17.1 78.2 16.6 C78.6 15.8 78.1 15.6 78.1 15.6 L78 15.6 L77.8 15.7 L77.7 15.8 C77.4 16.1 77.1 16.3 76.8 16.4 C76 16.8 74.9 16.6 74.4 16.5 L74.4 16.5 C74.3 16.5 74.2 16.5 74.1 16.4 C74.1 16.4 74.1 16.4 74.1 16.4 C74 16.4 74 16.4 74 16.4 C73.3 16.2 70.8 15.7 68.3 16.2 C67.9 15.5 67.2 15 65.9 15 C62.4 14.9 59.5 18.6 60.2 18.7 C60.9 18.7 61.1 18.6 61.3 18.2 C61.4 18.1 61.9 17.3 62.7 16.6 C64 15.6 65.8 14.7 67 16.5 C66.6 16.6 66.1 16.8 65.7 17.1 C62 19.1 60.6 22.5 62.2 23.4 C63.8 24.4 66.9 22.7 67.9 20.8 C68.7 19.5 68.7 18 68.6 17.5 L68.6 17.5 ZM64.5 23 C62.4 23.6 61.9 20.8 64.9 18.5 C65.7 17.9 66.5 17.7 67.3 17.5 C67.7 19.5 66.5 22.4 64.5 23 L64.5 23 Z" id="Fill-15" sketch:type="MSShapeGroup"/>
            </g>
        </g>
    </g>
</svg>
