<svg xmlns="http://www.w3.org/2000/svg" xmlns:xlink="http://www.w3.org/1999/xlink" xmlns:sketch="http://www.bohemiancoding.com/sketch/ns" width="200px" height="120px" viewBox="0 0 200 120" version="1.1">
    <!-- Generator: Sketch 3.3.2 (12043) - http://www.bohemiancoding.com/sketch -->
    <title>LO_Logo</title>
    <desc>Created with Sketch.</desc>
    <defs/>
    <g id="Page-1" stroke="none" stroke-width="1" fill="none" fill-rule="evenodd" sketch:type="MSPage">
        <g id="The-Lady-Ottoline-Homepage-Copy" sketch:type="MSArtboardGroup" transform="translate(-150.000000, -48.000000)" fill="#3A3F3E">
            <g id="Top-Nav" sketch:type="MSLayerGroup" transform="translate(150.000000, 48.000000)">
                <g id="LO_Logo" sketch:type="MSShapeGroup">
                    <g id="Imported-Layers-3">
                        <path d="M46.6712752 46.6 C46.1361745 46.3 45.7 45.8 45.5 45.1 L45.3215436 44.2 L45.3215436 36.2 C45.3215436 34.7 44.8 33.7 43.8 33.2 C43.2473154 32.8 42.4 32.7 41.4 32.7 C40.592349 32.7 39.9 32.8 39.2 33.1 C38.6230872 33.4 38.2 33.9 37.9 34.4 L37.8734899 25.8 C37.8734899 25.3 37.8 25 37.7 25 C37.532349 25 37.3 25.1 37.1 25.2 L36.814698 25.4 C36.2134228 26.1 35.5 26.5 34.7 26.7 C34.3285906 26.8 34 26.8 33.6 26.8 L32.9275168 26.9 C32.8214094 26.9 32.7 26.9 32.5 27 C32.5441611 27.2 32.6 27.4 32.8 27.6 L32.9594631 27.7 C33.3895973 28 33.7 28.2 33.8 28.5 C34.0536242 28.9 34.2 29.5 34.2 30 L34.1802685 44 C34.1802685 44.5 34.1 44.9 34 45.2 C33.753557 45.8 33.4 46.2 32.9 46.6 L32.7027517 46.7 C32.5989262 46.8 32.5 46.9 32.5 47.1 C32.6502685 47.2 32.8 47.2 33.1 47.2 L38.6128188 47.2 L38.9322819 47.2 L39.1912752 47.1 L39.3806711 46.9 L39.3179195 46.7 L39.2232215 46.6 C38.5158389 46.4 38.1 45.8 37.9 44.8 L37.9054362 44.1 L37.9054362 37.9 C37.9054362 36.7 38.3 35.9 39.2 35.6 C39.3487248 35.5 39.5 35.5 39.8 35.5 C40.270604 35.5 40.7 35.7 41.1 36.1 C41.4685906 36.5 41.7 36.9 41.7 37.5 L41.6625503 44.2 C41.6625503 44.8 41.5 45.2 41.3 45.6 C41.0955034 45.9 40.8 46.2 40.3 46.6 L40.2192617 46.8 C40.196443 46.8 40.2 46.9 40.2 46.9 C40.1633557 46.9 40.2 47 40.2 47 C40.196443 47.1 40.4 47.2 40.8 47.2 L46.0631544 47.2 C46.6187919 47.2 46.9 47.1 46.9 46.9 L46.8321477 46.8 L46.6712752 46.6" id="Fill-1"/>
                        <path d="M68.3719463 43.8 C67.8904698 44.7 67.2 45.3 66.2 45.7 L65.6667785 46 C64.9651007 46.5 64.6 46.9 64.6 47.2 C64.6901342 47.4 64.8 47.6 65 47.7 L65.9428859 47.9 L90.5004698 47.9 L91.1074497 48.1 C91.7338255 48.3 92.2 48.4 92.4 48.4 C92.7275839 48.5 93 48.5 93.4 48.5 C93.8137584 48.5 94.1 48.4 94.2 48.3 L94.3648322 47.9 C94.3271812 47.4 94.1 46.8 93.6 46.1 C92.9820134 45.2 92.6 44.3 92.4 43.5 C92.2289933 42.8 92.1 42.1 92 41.5 C92.0099329 41.2 92 40.6 92 39.8 L92.045302 38.4 C92.045302 36.6 91.8 35 91.2 33.5 C90.7971141 32.7 90.2 31.8 89.4 31 C88.476443 30.3 87.5 29.9 86.6 29.9 C86.36 30.2 86.3 30.4 86.3 30.7 L86.474094 31.9 L86.6372483 32.4 L87.1358389 33.5 C87.4632886 34.5 87.6 35.5 87.6 36.4 C87.6321477 38 87.3 39.4 86.6 40.6 C85.5693289 42.4 84 43.3 81.8 43.3 C79.4265101 43.3 77.8 42.4 76.9 40.6 C76.3710738 39.5 76.1 38 76.1 36.1 L76.0995302 18.9 C76.0995302 17.8 76.3 16.7 76.6 15.7 C77.0362416 14.7 77.7 13.9 78.7 13.3 C79.3534899 12.8 79.8 12.3 79.9 12 C80.088255 11.7 80.2 11.4 80.2 11.2 C80.07 11 79.9 10.9 79.6 10.9 C79.2793289 10.8 78.9 10.8 78.6 10.8 C77.4755034 11.2 76.5 11.5 75.6 11.6 L72.5124161 11.8 C72.0332215 11.8 71.4 11.7 70.6 11.7 C70.322953 11.6 69.7 11.5 68.9 11.4 L68.4814765 11.4 L66.8795973 11 C65.7785906 11 65.2 11.2 65 11.4 C65.0438255 11.8 65.2 12.1 65.4 12.4 C65.7021477 12.8 66 13.1 66.3 13.4 C66.3821477 13.5 66.5 13.6 66.6 13.7 C66.7141611 13.8 66.8 13.9 66.9 13.9 C67.5983893 14.4 68.1 15 68.4 15.7 C68.6628859 16.4 68.8 17.5 68.8 19.1 L68.8134899 41.5 C68.8134899 42.3 68.7 43.1 68.4 43.8" id="Fill-2"/>
                        <path d="M112.138389 47.9 L118.591544 47.9 C119.326309 47.9 119.7 47.7 119.7 47.3 C119.549933 47.1 119.3 46.8 118.9 46.6 L118.370201 46.2 C117.744966 45.8 117.3 45.1 116.9 43.9 C116.788859 43.6 116.7 43.1 116.6 42.2 L114.730604 29.8 C114.363221 27 113.5 25.1 112 23.9 C111.104698 23.2 109.9 22.8 108.5 22.8 C107.276846 23.2 106.4 23.4 105.7 23.5 L103.417047 23.7 C102.974362 23.7 102.4 23.6 101.8 23.6 C101.280067 23.5 100.8 23.4 100.2 23.2 C99.6656376 23 99.1 22.8 98.4 22.4 C97.7294631 22.7 97.3 23.2 97.1 23.7 C96.9034228 24.2 96.8 24.8 96.8 25.6 C97.012953 26.7 97.3 27.6 97.5 28.3 C98.392349 30 99.8 30.9 101.8 30.9 L103.362282 30.7 C104.060537 30.3 104.5 29.9 104.6 29.4 C104.060537 29.2 103.7 29 103.6 28.7 C103.525436 28.4 103.5 28.2 103.5 27.9 C103.46953 27.3 103.6 26.9 103.7 26.8 C103.929329 26.6 104.3 26.6 104.9 26.6 C105.714899 26.6 106.4 26.7 106.9 27 C107.408054 27.4 107.7 28.1 107.8 29.1 L109.266644 37.1 L109.428658 37.9 L109.485705 39.1 C109.485705 40.1 109.2 41.1 108.8 41.9 C108.106309 43 107.1 43.6 105.7 43.8 C104.410805 43.8 103.5 43.2 102.9 41.9 C102.734765 41.5 102.6 40.9 102.5 40 C102.474631 38.7 102.8 37.8 103.6 37.4 C103.839195 37.2 104.2 37.1 104.6 37.1 C105.14443 37.1 105.7 37.2 106.2 37.5 C106.672148 37.7 106.9 38.2 107.1 38.8 L107.445705 38.6 C107.994497 38.2 108.3 37.6 108.3 37.1 C108.269463 35.6 107.8 34.3 107 33.4 C106.154161 32.4 105 32 103.4 32 C101.758121 32 100.3 32.4 99.1 33.1 C96.9387919 34.6 95.9 36.9 95.9 40.2 C96.1116107 41.5 96.3 42.4 96.4 42.8 C96.5885235 43.4 96.8 44 97 44.3 C98.3569799 47 100.7 48.4 104 48.4 C106.616242 48.4 108.6 47.5 109.9 45.7 L110.479463 44.6 C110.479463 45.3 110.6 46 110.8 46.7 C111.031678 47.5 111.5 47.9 112.1 47.9" id="Fill-3"/>
                        <path d="M88.5779866 65.3 C87.0708054 65.3 85.9 65.7 85.1 66.6 C84.3291275 67.5 83.9 68.7 83.9 70.2 C83.9400671 71.4 84.2 72.5 84.7 73.2 C85.3936242 74.4 86.7 75 88.6 75 L88.9647651 73.5 C89.4040268 72.5 90.1 72 91 72 C91.9608725 72 92.8 72.5 93.4 73.4 C94.0590604 74.3 94.4 75.5 94.4 77.1 L94.3191946 78.2 C94.3191946 81.1 93.2 82.9 90.8 83.7 C90.3624161 83.9 89.8 84 89.3 84 C86.3885235 84 84.4 82.7 83.3 80.1 C82.582349 78.6 82.2 76.5 82.2 73.8 C82.2309396 72.5 82.4 71.2 82.7 70.1 L83.2258389 68.9 L83.337651 68.6 L83.3901342 68.1 C83.3901342 68 83.3 67.9 83.1 67.7 L82.6188591 68 L82.1214094 68.3 C80.5377852 69.9 79.5 72 78.9 74.5 C78.4966443 75.9 78.3 77.4 78.3 79.2 C78.3848322 79.6 78.5 80.1 78.5 80.6 C78.5685235 80.7 78.6 80.8 78.6 80.9 C78.6255705 81.3 78.7 81.7 78.8 82.3 C79.3055705 84.6 80.2 86.5 81.6 87.9 C83.5179195 89.8 86.1 90.8 89.2 90.8 C92.0338926 90.8 94.2 89.7 95.7 87.4 C97.1681208 85.1 97.9 82.1 97.9 78.3 C97.9028859 74.2 97 71 95.3 68.7 C93.5456376 66.4 91.3 65.3 88.6 65.3" id="Fill-4"/>
                        <path d="M109.86906 89.2 C108.657383 88.9 107.9 87.9 107.7 86.2 L107.608859 85.1 L107.554094 53.6 C107.554094 52.7 107.4 52.2 107.2 52.2 C106.964228 52.2 106.6 52.3 106.2 52.6 L105.732013 52.9 C104.850067 53.8 103.8 54.5 102.7 54.8 C102.617248 54.9 102.6 54.9 102.5 54.9 C102.369664 54.9 102.2 55 102.1 55 C100.920671 55.3 99.8 55.2 99 55.1 C95.2981208 54.5 91.6 54.2 88.2 56.4 C86.2230872 57.7 85.8 59.5 87.3 61.3 C87.3674497 61.4 87.4 61.4 87.5 61.4 C86.6087248 61.6 85.7 61.6 84.9 61.6 C82.0255705 61.7 79.3 60.8 77.5 58.5 C77.1058389 58 74.7 58.9 75.1 59.4 C77.2701342 62 80.5 62.7 83.7 62.7 C85.2863758 62.6 86.9 62.5 88.4 62.1 C88.3885906 62.1 88.4 62.1 88.4 62.1 C89.7326174 62.8 91.5 63 92.8 63.1 C94.4481208 63.1 96.8 62.6 97.6 61 C98.3820805 59.5 93.8 59.7 93.3 59.8 C92.1742282 60 91.1 60.4 90.1 60.7 C89.2066443 60.1 88.6 59.2 88.9 58 C89.4530872 55.6 92.8 55.6 94.6 55.7 C95.3528859 55.8 96.1 55.9 96.8 56 C97.9656376 56.3 99.7 56.9 100.6 58.3 C101.013087 59.1 101.2 59.9 101.2 60.8 L101.203624 84.8 C101.203624 85.7 101.1 86.4 100.9 87 C100.47 87.9 99.8 88.7 98.9 89.2 L98.6673154 89.5 C98.4836242 89.7 98.4 89.9 98.4 90.1 C98.5748993 90.3 98.9 90.3 99.3 90.3 L108.821678 90.3 L109.372752 90.3 L109.815436 90.1 L110.14745 89.8 L110.034497 89.5 L109.86906 89.2 L109.86906 89.2 Z M94.708255 61 C95.6038926 61.3 94.7 62 94.1 62 C93.2227517 62 92.4 61.7 91.5 61.5 C91.3367785 61.4 91.1 61.4 90.9 61.3 C92.2095973 60.8 93.5 60.5 94.7 61 L94.708255 61 Z" id="Fill-5"/>
                        <path d="M123.11651 89.6 C121.940201 89.4 121.2 88.7 120.9 87.6 L120.856309 86.9 L120.799262 67 C120.799262 66.3 120.7 66 120.5 66 L119.418725 66.2 L118.978322 66.5 C117.910403 67.2 116.7 67.7 115.3 67.9 C114.856107 68 114.2 68.1 113.5 68.1 L112.575369 68.1 C112.35745 68.1 112 68.1 111.6 68.2 L112.023154 68.8 L112.35745 69.1 L113.40255 69.6 C114.100805 70.1 114.4 70.8 114.4 71.7 L114.449933 86.7 C114.449933 87.3 114.3 87.8 114.1 88.1 C113.714027 88.8 113.1 89.3 112.2 89.6 L111.801812 89.9 L111.638658 90.2 C111.784698 90.3 112 90.3 112.3 90.3 L122.562013 90.3 L123.00698 90.3 L123.392617 89.9 L123.279664 89.8 L123.11651 89.6" id="Fill-6"/>
                        <path d="M148.785369 89.1 L147.629597 88.2 C147.222282 87.8 147 87.4 146.9 86.8 L146.688322 85.3 L146.688322 73.9 L146.745369 72.7 C146.745369 70.3 146.1 68.5 144.9 67.2 C143.614631 65.9 141.9 65.3 139.8 65.3 L137.693154 65.7 C136.110671 66.2 134.9 67 134.2 68.3 L134.160805 65.6 L134.048993 65.1 C134.048993 65.1 134 65.1 134 65.1 C133.922349 65 133.8 65 133.8 64.9 L133.387248 65.1 L133.00047 65.4 C132.266846 66.2 131.7 66.6 131.3 66.9 C129.821812 67.8 128.2 68.3 126.4 68.3 L125.939195 68.3 C125.388121 68.5 125.1 68.7 125.1 68.9 C125.093758 69.1 125.2 69.3 125.3 69.5 L126.104631 70.1 L126.987718 70.9 C127.576443 71.6 127.9 72.6 127.9 73.8 L127.868523 85.3 C127.868523 86.2 127.7 86.9 127.3 87.6 C126.951208 88.2 126.5 88.7 125.8 88.9 L125.49651 89.3 L125.165638 90 C125.274027 90.2 125.8 90.3 126.6 90.3 L135.763826 90.3 C136.350268 90.2 136.7 90.1 136.8 89.9 L136.480336 89.2 L136.257852 88.9 C135.558456 88.5 135.1 88 134.8 87.3 C134.434631 86.7 134.3 86 134.3 85.2 L134.273758 73.9 C134.273758 72.8 134.5 71.9 135 71.2 C135.558456 70.6 136.3 70.2 137.3 70.2 C137.729664 70.2 138.1 70.3 138.4 70.4 C138.615034 70.5 138.9 70.7 139.1 70.8 C139.827852 71.4 140.2 72.5 140.2 74.1 L140.17698 85.4 C140.17698 86 140.1 86.6 139.8 87.1 C139.515235 88 139 88.6 138.2 88.9 L137.970403 89.3 L137.913356 89.8 C138.025168 90 138.4 90.2 138.9 90.3 L148.012953 90.3 L148.785369 90.2 C148.93255 90.1 149 89.9 149.1 89.8 L149.007852 89.4 L148.785369 89.1" id="Fill-7"/>
                        <path d="M169.284631 80.6 L168.56698 81 L168.183624 81.4 C166.637651 83.1 165 84.3 163.3 84.9 C163.014027 85 162.6 85.1 162.1 85.2 C159.316242 85.2 157.4 84.1 156.3 81.8 C155.894564 81 155.6 79.9 155.4 78.5 L156.867785 79.8 C158.005302 80.6 159.2 81 160.4 81 L161.335705 80.9 C163.13953 80.3 164.4 79.7 165.1 79.2 C166.451678 78.2 167.5 77.2 168.2 76.1 C168.880738 75 169.2 73.8 169.2 72.4 L169.284631 71.3 C169.284631 69.8 169 68.5 168.5 67.5 L167.629128 66.4 C166.894362 66.6 166.3 66.7 165.9 66.7 C165.091678 66.7 164.3 66.5 163.6 66.2 L162.826913 65.8 C162.680872 65.5 162.3 65.4 161.8 65.4 C161.263826 65.3 160.7 65.3 160.1 65.3 C159.389262 65.3 158.5 65.5 157.4 65.8 C155.286443 66.5 153.6 67.6 152.5 69.1 C150.686174 71.3 149.8 74.4 149.8 78.2 L150.244631 81.5 C150.834497 83.9 151.7 86 153 87.5 C154.750201 89.7 157.1 90.8 160 90.8 C162.150336 90.8 164.1 89.8 165.9 88 C168.236107 85.6 169.4 83.6 169.4 82.1 L169.560738 81 C169.49 80.8 169.4 80.6 169.3 80.6 L169.284631 80.6 Z M155.545436 71.7 C155.691477 71.2 155.9 70.7 156 70.3 C156.775369 69.1 158 68.4 159.7 68.4 C160.988859 68.4 161.9 68.9 162.5 69.7 C163.124698 70.5 163.4 71.7 163.4 73.1 C163.178322 75.4 162.2 76.8 160.6 77.4 L159.461141 77.7 C158.725235 77.7 158.2 77.5 157.8 77.1 C156.422819 75.9 157.3 74.2 157.3 74.2 C157.42 74 157.6 73.9 157.8 73.9 L158.35557 74 L158.63396 74.2 L159.187315 74.5 C159.407517 74.6 159.6 74.7 159.8 74.7 L160.34651 74.4 C160.489128 74.3 160.6 74 160.6 73.7 C160.563289 73 160.3 72.5 159.8 72.3 C159.297987 72.1 158.7 72 158 72 C157.548926 72 157.1 72.1 156.6 72.3 C156.112483 72.6 155.7 73 155.3 73.5 C155.321812 72.8 155.4 72.2 155.5 71.7 L155.545436 71.7 Z" id="Fill-8"/>
                        <path d="M119.864832 10.1 C120.164899 10.2 120.5 10.3 120.8 10.4 C119.653758 13.5 122.9 15.4 125.6 15.7 C128.636376 15.9 132.4 14.8 134.3 12.3 C134.839664 11.6 132.3 12 131.9 12.5 C130.484698 14.3 128.4 14.8 126.3 14.3 C124.441141 13.9 123.3 12.7 123.3 10.9 C125.560403 11.2 127.9 10.9 129.9 9.9 C130.874899 9.4 132 8.7 132.4 7.6 C132.756309 6.2 130.5 5.6 129.7 5.6 C126.731007 5.3 123.5 6.5 121.7 8.9 C120.802685 8.5 120 7.9 119.5 7.1 C118.143154 5.2 118.9 2 121.3 1.5 C123.390336 1.1 125.8 1.7 127.8 2.3 C128.800671 2.6 129.8 3 130.8 3.4 C132.372953 4.2 135.6 6.3 135.6 10.3 L135.644027 13.7 L135.644027 25.4 C135.019933 24.7 134.6 24.3 134.3 24.1 C133.014161 23.2 131.7 22.7 130.2 22.7 L128.857718 22.8 C126.244966 22.8 124.2 23.9 122.6 26 C121.04 28.1 120.3 31.1 120.3 35.2 L120.301812 36.6 C120.301812 39.6 120.8 42 121.7 43.9 C123.11651 46.8 125.5 48.3 129 48.3 C131.099664 48.3 132.8 47.6 134.2 46.3 C134.614899 45.9 135.1 45.3 135.6 44.3 L135.86651 46.3 C136.050201 46.9 136.3 47.4 136.7 47.9 L143.814295 47.9 L144.696242 47.8 C145.024832 47.7 145.2 47.6 145.2 47.4 C145.15604 47.2 144.9 46.9 144.3 46.6 C143.427517 46.1 142.9 45.4 142.7 44.5 C142.433758 43.9 142.3 43.3 142.2 42.8 C142.175906 42.5 142.2 42 142.2 41.2 L142.155369 3 C142.16906 2.9 142.2 2.7 142.2 2.4 C142.222685 2.1 142.3 1.8 142.3 1.5 C142.251208 1.2 142.2 0.9 142.2 0.6 C142.093758 0.3 142 0.2 141.8 0.2 C141.594027 0.2 141.4 0.4 141.2 0.6 C140.940268 0.8 140.7 1 140.5 1.1 C140.060604 1.5 139.2 1.9 139.2 1.9 C138.753087 2.2 138.3 2.3 137.8 2.4 C136.426711 2.7 134.3 2.7 131.9 1.9 C131.149866 1.6 130.4 1.4 129.8 1.2 C128.621544 0.9 127.4 0.6 126.2 0.4 C123.29906 0 119 0.1 117.1 2.8 C115.003289 5.7 116.9 9 119.9 10.1 L119.864832 10.1 Z M129.332349 7.2 C130.315839 7.8 129.3 8.9 128.8 9.3 C127.758993 10 126.2 9.9 125 9.8 C124.546107 9.7 124.1 9.7 123.6 9.6 C124.428591 7.3 127.2 6 129.3 7.2 L129.332349 7.2 Z M134.986846 40 C134.212148 42.1 132.9 43.2 131.2 43.2 C130.034027 43.2 129.1 42.9 128.3 42.1 C127.163423 41 126.6 39.2 126.6 36.6 L126.539329 34.9 C126.539329 32.4 126.9 30.4 127.6 28.9 C128.379664 27.5 129.3 26.8 130.5 26.8 L131.342685 26.7 C132.076309 26.7 132.7 26.9 133.2 27.3 C133.640537 27.6 133.9 28.3 133.9 29.2 L133.604027 30.2 C133.197852 30.9 132.6 31.2 131.7 31.2 L130.456174 31 C130.088792 31 129.9 31.1 129.9 31.3 C129.906242 31.6 130.1 31.9 130.6 32.5 L131.173826 33.1 C131.614228 33.3 132 33.4 132.3 33.4 C133.106577 33.4 133.9 33.1 134.8 32.5 L135.703356 31.6 L135.811745 34.1 C135.811745 36.5 135.5 38.4 135 40 L134.986846 40 Z" id="Fill-9"/>
                        <path d="M123.361812 64.5 C129.184027 63.9 135 63.2 140.6 61.5 C142.75094 60.8 144.8 60.1 146.8 59.2 C149.222349 58.2 153.6 56.2 157.7 53 L157.717785 53 C157.84557 52.9 158 52.8 158.1 52.6 C158.141074 52.6 158.2 52.6 158.2 52.6 C158.360134 52.5 158.5 52.3 158.7 52.2 C158.846174 52.1 159 51.9 159.2 51.7 C161.764698 49.5 164.1 46.7 165.7 43.3 C166.756309 41.1 167.5 39 168 37.1 C168.043289 37.1 168.1 37 168.1 36.9 C168.133423 36.7 168.2 36.6 168.2 36.4 C168.628591 34.7 168.8 33.1 168.9 31.8 C168.910403 31.4 168.9 31.1 168.9 30.8 C168.921812 28.3 168.4 26.3 167.4 24.9 C166.440268 23.6 165.1 22.9 163.5 22.9 C161.764698 22.9 160.4 23.3 159.4 24.1 C158.435436 24.9 157.9 26 157.9 27.4 L157.997315 27.7 C158.251745 28.7 158.4 29.3 158.5 29.4 C159.280872 30.8 160.3 31.4 161.6 31.4 L161.748725 30.9 C161.967785 30.6 162.2 30.4 162.5 30.4 C163.130403 30.4 163.6 30.6 164 30.9 C164.250805 31.3 164.4 32 164.4 33 L164.064832 35.7 C163.623289 38 162.9 40.1 162 42 L152.639463 23.5 C152.274362 22.8 151.9 22.4 151.6 22.4 C151.374161 22.4 151.2 22.6 151 22.8 L150.87557 23.1 C150.137383 24.8 148.8 26 146.9 26.8 L145.852013 27.2 L145.081879 27.4 C144.933557 27.5 144.8 27.6 144.6 27.9 L144.417852 28 C144.493154 28.4 145 28.6 146 28.7 L147.397987 29.2 C148.467047 29.7 149.2 30.4 149.5 31.3 L154.793557 42 C155.014899 42.6 155.1 43 155.1 43.4 L154.957852 44.1 L154.793557 44.7 L154.793557 45.1 L155.014899 45.9 C155.196309 46.2 155.5 46.4 155.9 46.5 C156.300738 46.7 156.8 46.7 157.3 46.7 L158.687584 46.6 C158.097718 47.4 156.4 49.6 153.5 51.8 C146.575369 56.4 139.1 59.3 130.9 60.5 C127.441812 61 123.9 61.6 120.4 61.4 C119.244161 61.3 117.8 61.1 116.8 60.3 C116.421477 60 116.1 59.4 116 58.9 C116.333624 59 116.7 59.1 117.1 59.1 C118.464899 59.1 119.6 58.2 119.6 57 C119.592148 56.8 119.6 56.6 119.5 56.4 C119.466644 56.4 119.4 56.3 119.4 56.2 C117.233826 51.3 109.2 56.8 111.5 61.3 C113.49953 65.1 119.7 64.9 123.4 64.5" id="Fill-10"/>
                        <path d="M50.0096644 45.7 C51.0673154 46.9 52.5 47.6 54.2 47.6 C55.4097315 47.6 56.6 47 57.6 46 C58.9797315 44.5 59.7 43.4 59.7 42.5 L59.7578523 41.9 C59.7156376 41.7 59.7 41.6 59.6 41.6 L59.1736913 41.8 L58.9489262 42.1 C58.0418792 43.1 57.1 43.8 56.1 44.1 C55.9151678 44.2 55.7 44.3 55.4 44.3 C53.7451007 44.3 52.6 43.6 52 42.3 C51.7381879 41.9 51.6 41.2 51.5 40.4 L52.3097987 41.1 C52.9783893 41.6 53.7 41.9 54.4 41.9 L54.9316779 41.8 C55.9893289 41.4 56.7 41.1 57.1 40.8 C57.932349 40.2 58.5 39.6 58.9 39 C59.3585235 38.3 59.6 37.6 59.6 36.8 L59.593557 36.2 C59.593557 35.3 59.4 34.5 59.1 33.9 L58.6237584 33.3 C58.1924832 33.4 57.8 33.5 57.6 33.5 C57.1348322 33.5 56.7 33.4 56.3 33.2 L55.8056376 32.9 C55.7200671 32.8 55.5 32.7 55.2 32.7 C54.8883221 32.7 54.6 32.6 54.2 32.6 C53.7907383 32.6 53.3 32.7 52.6 32.9 C51.3810738 33.3 50.4 34 49.7 34.9 C48.6816107 36.2 48.2 38 48.2 40.2 L48.4226174 42.1 C48.7694631 43.6 49.3 44.8 50 45.7 L50.0096644 45.7 Z M51.5328188 36.4 C51.6195302 36.1 51.7 35.8 51.8 35.6 C52.2561745 34.8 53 34.5 54 34.5 C54.7274497 34.5 55.3 34.7 55.6 35.2 C55.9802013 35.7 56.2 36.4 56.2 37.2 C56.0121477 38.6 55.5 39.4 54.5 39.8 L53.8306711 39.9 C53.399396 39.9 53.1 39.7 52.9 39.6 C52.0097315 39 52.6 37.9 52.6 37.9 C52.6326846 37.7 52.7 37.7 52.9 37.7 L53.1814765 37.8 L53.3457718 37.9 L53.6709396 38.1 C53.7987248 38.1 53.9 38.1 54.1 38.1 L54.3497987 38 C54.4342282 37.9 54.5 37.8 54.5 37.6 C54.4775839 37.2 54.3 36.9 54.1 36.7 C53.7359732 36.6 53.4 36.6 53 36.6 C52.7091275 36.6 52.4 36.6 52.1 36.7 C51.8659732 36.9 51.6 37.1 51.4 37.5 C51.4027517 37 51.4 36.7 51.5 36.4 L51.5328188 36.4 Z" id="Fill-11"/>
                        <path d="M62.1024832 90.1 L61.4030872 90.5 C61.0471141 90.9 60.7 91.1 60.3 91.3 C60.0077181 91.4 59.6 91.5 59.1 91.5 C58.234698 91.5 57.7 91.2 57.5 90.6 C57.271745 90 57.2 89.3 57.2 88.6 L57.1599329 68.9 C60.6991275 68.4 61.4 67.7 61.9 66.1 C62.4778523 64.5 60.8 65.5 59.9 65.8 C59.0687248 66 57.2 65.7 57.2 65.7 L57.0538255 57.8 C57.0538255 57.4 57 57.1 57 57 C56.9648322 56.9 56.9 56.8 56.8 56.6 L56.3555705 56.5 C55.9619463 56.5 55.6 56.8 55.2 57.3 L54.8518121 58.2 C54.8518121 60.2 54.3 62 53.1 63.5 C51.8979195 65.1 51.3 66 49.2 66.5 C49.1539597 66.5 48.8 66.6 48.6 66.8 C48.0597987 67.2 47.4 68.1 48.6 68.7 C48.7443624 68.8 49 68.8 49.2 68.9 L50.9326846 68.9 L50.9326846 90.3 C51.1825503 91.6 51.4 92.5 51.6 92.9 C52.5596644 94.7 54.1 95.6 56.4 95.6 C57.5752349 95.6 58.6 95.3 59.5 94.9 C60.8691275 94.2 61.7 93.1 62 91.5 C62.1903356 91.3 62.3 91.1 62.3 90.9 L62.371745 90.1 L62.2085906 90 L62.1024832 90.1" id="Fill-12"/>
                        <path d="M76.4680537 84.2 L75.7709396 84.6 C75.4149664 84.9 75.1 85.2 74.7 85.3 C74.3744295 85.5 74 85.6 73.5 85.6 C72.6025503 85.6 72.1 85.3 71.9 84.7 C71.6384564 84.1 71.5 83.4 71.5 82.7 L71.5289262 68.9 C75.0692617 68.4 75.8 67.7 76.3 66.1 C76.8479866 64.5 75.1 65.5 74.3 65.8 C73.4365772 66 71.5 65.7 71.5 65.7 L71.4228188 57.8 C71.4228188 57.4 71.4 57.1 71.4 57 C71.3338255 56.9 71.3 56.8 71.2 56.6 L70.7234228 56.5 C70.3309396 56.5 70 56.8 69.6 57.3 L69.2196644 58.2 C69.2196644 60.2 68.6 62 67.5 63.5 C66.2657718 65.1 65.7 66 63.5 66.5 C63.522953 66.5 63.2 66.6 63 66.8 C62.4299329 67.2 61.8 68.1 63 68.7 C63.1110738 68.8 63.3 68.8 63.5 68.9 L65.299396 68.9 L65.299396 84.3 C65.5515436 85.7 65.8 86.6 66 87 C66.9286577 88.8 68.5 89.6 70.7 89.6 C71.9419463 89.6 73 89.4 73.8 89 C75.2381208 88.3 76.1 87.2 76.4 85.5 C76.5593289 85.4 76.6 85.2 76.6 84.9 L76.7418792 84.2 L76.576443 84.1 L76.4680537 84.2" id="Fill-13"/>
                        <path d="M36.1267114 53.4 C34.4061745 52.8 32.5 52.5 30.5 52.5 C28.7505369 52.5 27 52.8 25.3 53.4 C22.27 54.3 19.9 56 18.1 58.2 C15.6468456 61.2 14.4 65.4 14.4 70.6 C14.430604 73 14.7 75.4 15.2 77.5 C16.1271812 81 17.7 83.8 19.8 86.1 C22.629396 88.9 26.4 90.3 31.1 90.3 C32.5624161 90.3 34.1 90 35.7 89.5 C38.704094 88.4 41.1 86.7 42.9 84.3 C45.4014094 81 46.7 76.5 46.7 70.8 C46.6541611 65.6 45.5 61.4 43.2 58.3 C41.3704698 56 39 54.3 36.1 53.4 L36.1267114 53.4 Z M36.664094 82.9 C35.2299329 85.8 33.3 87.3 30.9 87.3 C28.1971812 87.3 26.1 85.8 24.6 82.7 C23.0766443 79.7 22.3 75.6 22.3 70.6 C22.3236242 65.3 23.2 61.4 24.9 58.9 C24.8451007 59.6 24.8 60.3 24.8 61.1 C24.8120134 65.1 25.6 68.2 27.3 70.5 C29.050604 72.7 31.2 73.8 33.9 73.8 C35.3520134 73.8 36.5 73.4 37.3 72.5 C38.0195302 71.7 38.4 70.5 38.4 69 C38.3994631 67.8 38.2 66.8 37.7 66.1 C36.983557 64.9 35.7 64.4 33.8 64.4 L33.509396 65.8 C33.0792617 66.8 32.4 67.2 31.5 67.2 C30.5920134 67.2 29.8 66.8 29.2 65.9 C28.5497315 65 28.2 63.8 28.2 62.3 L28.2987248 61.3 C28.2987248 58.4 29.4 56.6 31.7 55.9 C31.6987248 55.9 31.7 55.9 31.7 55.9 C33.2081879 56.1 34.5 56.8 35.5 58 C37.6658389 60.4 38.8 64.7 38.8 70.7 C38.76 75.9 38.1 80 36.7 82.9 L36.664094 82.9 Z" id="Fill-14"/>
                        <path d="M15.2577852 28 C19.1118792 28.2 22.5 29.9 22.5 29.9 C22.5301342 29.9 22.7 30 22.8 30.1 C22.9032215 30.2 22.9 30.4 22.5 30.6 C21.817047 30.9 20.1 31.9 19.6 32.8 C19.5100671 32.9 19.5 33 19.4 33.1 L19.4347651 33.1 C19.4347651 33.1 19.2 33.9 19.7 34.3 C20.1912081 34.3 20.6 34.5 20.7 35 C20.834698 35.1 20.9 35.4 20.9 35.7 L20.8769128 43.3 C20.8769128 43.9 20.7 44.5 20.4 45 C20.0622819 45.5 19.6 45.8 19.1 46 L18.851745 46.1 C18.5048993 46.3 18.3 46.5 18.3 46.6 L18.2014094 46.8 C18.2208054 47 18.6 47.1 19.2 47.2 L27.1497987 47.2 L27.8366443 47 C27.8811409 47 27.9 46.9 28 46.8 L28.0659732 46.7 C28.0431544 46.6 27.9 46.4 27.6 46.3 L27.2159732 46.1 C26.2130872 45.7 25.6 44.9 25.3 43.9 L25.2216107 43.2 L25.254698 32.8 C25.254698 31.9 25.5 31.3 25.9 30.9 L26.1355034 30.8 C27.7898658 30.5 29.3 29.7 30.7 28.4 C31.1339597 28 31.8 27.4 32.2 26.5 C32.998255 25 32.1 24.7 32.1 24.7 L31.9189262 24.6 L31.526443 24.8 L31.3324832 24.9 C30.8122148 25.5 30.3 25.9 29.8 26.1 C28.2633557 26.8 26.3 26.5 25.4 26.3 L25.4178523 26.3 C25.274094 26.2 25.1 26.2 24.9 26.2 C24.9215436 26.1 24.9 26.1 24.9 26.1 C24.8781879 26.1 24.8 26.1 24.8 26.1 C23.5136242 25.8 19.1 24.8 14.6 25.7 C13.9514094 24.4 12.7 23.5 10.5 23.5 C4.24657718 23.3 -0.9 30.1 0.4 30.2 C1.67718121 30.3 2 30 2.4 29.4 C2.48268456 29.2 3.4 27.7 4.8 26.5 C7.02134228 24.6 10.2 23.1 12.4 26.3 C11.617047 26.5 10.8 26.9 10.1 27.3 C3.61449664 31.1 1 37.1 3.9 38.8 C6.77489933 40.5 12.2 37.6 14.1 34.1 C15.3730201 31.6 15.3 29 15.3 28 L15.2577852 28 Z M8.03791946 38 C4.28879195 39.1 3.4 34.1 8.8 29.9 C10.0425503 28.9 11.5 28.4 13 28.1 C13.6319463 31.7 11.5 37 8 38 L8.03791946 38 Z" id="Fill-15"/>
                    </g>
                    <g id="Imported-Layers">
                        <path d="M182.4 99.9 C182.4 100.1 182.3 99.8 182.4 99.9 M173.2 102.3 C176.3 102.9 178.6 99.3 179.7 96.6 C178.2 95.4 177.8 91 180.5 89.6 C184.7 93 179.6 97 178.2 100.7 C183 100.3 186.7 96.1 189.2 90 C188.4 88.2 187.9 85 190.3 83.2 C191.1 83.3 191.7 84.1 192.1 84.7 C191.8 85.9 192.5 87.1 191.4 88.7 C191 89.3 190.1 89.7 189.6 90.3 C188.1 92.5 187.7 95.8 185.6 97.6 C190.2 96.1 191.9 93.8 194.5 90.5 C196.3 88.1 195.2 83.2 198.6 83.5 C201 85.7 198.1 89.6 195.6 89.7 C194 91.9 193 93.5 191.3 95 C192.9 95.8 195.4 93.9 197.4 94.1 C198.2 94.2 200.4 95.2 199.8 96.8 C199 99.2 194.8 97.6 193.8 95.7 C190.7 95.3 188.1 97.1 185.5 98.8 C187.9 100.3 195.4 97.8 195.1 103.4 C194.2 104 192.7 104.1 191.4 103.2 C190.5 102.6 190.4 101.1 189.5 100.4 C188.4 99.6 185 99.6 183.6 99.8 C181.6 100.2 180 101.5 178.3 102.1 C178.3 102.1 178.2 102 178.2 102 C178.1 102.2 178.3 102.2 178.3 102.1 C179.7 102.1 181.5 103.1 183.8 103.7 C185.8 104.3 189.3 103.1 190.3 105.8 C191.8 109.7 183.9 107.4 184.1 104.4 C180.8 103.5 177.6 102.6 174.6 103.2 C174.3 103.1 174.5 103.4 174.6 103.2 " id="Fill-1"/>
                        <path d="M176.7 102.7 C173 102.5 170 103.5 168.1 108.5 C171.1 110.2 168.5 117.8 165.9 113.3 C166.2 110.1 167.7 107.5 169.8 104 C167.1 103.7 164.8 107.5 163.7 111 C165 112.8 164.2 117.7 161.2 117.5 C160.5 116.4 160.2 114.7 160.8 113.6 C161.2 112.6 162.4 112.1 163 111.1 C164.1 109.4 164.1 107 165.4 105.4 C163.8 106.4 162.2 107.9 160.6 108.9 C160.6 111.7 157.1 114.6 154.6 113.4 C154.3 110.2 157.9 108.2 160.4 108.5 C161.2 107.2 162.8 106.8 163.2 105.8 C160.2 105.7 157.5 106.9 154.4 106.2 C154 105.4 152.9 104.7 152.9 103.8 C155 102 158 102.8 160.5 105.4 C162.9 105.2 165.2 105 167.4 103.7 C164.2 102.6 159.3 103.1 157.6 99.9 C157.8 99.2 157.4 98.5 158 97.7 C160.3 96.3 163.6 99.3 163.4 101.9 C166.2 103 168.8 103.2 171.3 102.4 L176.7 102.7 " id="Fill-2"/>
                        <path d="M173.5 102.6 C173.8 102.6 175.1 100.9 174.5 99.1 C173.9 97.3 172.4 97.7 172.4 97.5 C172.4 97.5 168.7 101.3 171.5 102.6 " id="Fill-3"/>
                        <path d="M173.3 103 C173.3 103 176 101.8 176.7 105 C177.3 108.3 176.4 108.1 176.4 108.1 C176.4 108.1 173.1 106.9 172.5 103.2 " id="Fill-4"/>
                    </g>
                </g>
            </g>
        </g>
    </g>
</svg>
