<svg xmlns="http://www.w3.org/2000/svg" xmlns:xlink="http://www.w3.org/1999/xlink" xmlns:sketch="http://www.bohemiancoding.com/sketch/ns" width="240px" height="68px" viewBox="0 0 240 68" version="1.1">
    <!-- Generator: Sketch 3.3 (11970) - http://www.bohemiancoding.com/sketch -->
    <title>logo bottom</title>
    <desc>Created with Sketch.</desc>
    <defs/>
    <g id="Page-1" stroke="none" stroke-width="1" fill="none" fill-rule="evenodd" sketch:type="MSPage">
        <g id="logo-bottom" sketch:type="MSArtboardGroup" fill="#1A1918">
            <g id="Imported-Layers-Copy" sketch:type="MSLayerGroup">
                <path d="M85.7 52 L86.1 52 C86.3 53 86.7 53.6 87.8 53.6 C88.5 53.6 89.1 53.1 89.1 52.6 C89.1 52.4 89.1 52.2 88.8 51.9 C88.2 51.3 87 50.9 86.2 50.1 C86 49.9 85.8 49.6 85.8 49.2 C85.8 48.3 86.7 47.6 87.9 47.6 C88.5 47.6 89.2 47.8 89.8 48.1 L89.8 49.5 L89.4 49.5 C89.4 48.6 88.7 48 87.9 48 C87.2 48 86.7 48.4 86.7 48.9 C86.7 49.1 86.8 49.3 87 49.5 C87.5 50 88.9 50.5 89.6 51.2 C89.9 51.5 90.1 51.9 90.1 52.3 C90.1 53.3 89.1 54 87.8 54 C87.1 54 86.1 53.8 85.7 53.6 L85.7 52 " id="Fill-1" sketch:type="MSShapeGroup"/>
                <path d="M99.7 48.1 L98.7 48.1 C97.9 48.1 97.7 48.3 97.2 49.2 L96.9 49.2 L97 47.7 L103.4 47.7 L103.5 49.2 L103.2 49.2 C102.7 48.3 102.5 48.1 101.7 48.1 L100.7 48.1 L100.7 52.7 C100.7 53.3 100.9 53.6 101.7 53.6 L101.7 53.9 L98.7 53.9 L98.7 53.6 C99.5 53.6 99.7 53.3 99.7 52.6 L99.7 48.1 " id="Fill-2" sketch:type="MSShapeGroup"/>
                <path d="M112.9 50.6 C113.9 50.6 114.4 50.2 114.4 49.4 C114.4 48.8 113.9 48.1 112.8 48.1 L112 48.1 L112 50.6 L112.9 50.6 L112.9 50.6 ZM112 52.7 C112 53.3 112.3 53.6 113 53.6 L113 53.9 L110.2 53.9 L110.2 53.6 C111 53.6 111.1 53.1 111.1 52.5 L111.1 49 C111.1 48.4 110.8 48.1 110.2 48.1 L110.2 47.7 L113.1 47.7 C114.8 47.7 115.5 48.5 115.5 49.3 C115.5 50 115 50.7 113.8 50.9 L115.1 52.4 C115.8 53.1 116.2 53.6 116.6 53.6 L116.6 53.9 L115.9 53.9 C115.2 53.9 114.9 53.7 114.2 52.9 L113 51.4 C112.8 51.1 112.7 51 112.3 51 L112 51 L112 52.7 L112 52.7 Z" id="Fill-3" sketch:type="MSShapeGroup"/>
                <path d="M128.1 53.9 L122.8 53.9 L122.8 53.6 C123.5 53.6 123.8 53.3 123.8 52.6 L123.8 49 C123.8 48.4 123.5 48.1 122.8 48.1 L122.8 47.7 L128.1 47.7 L128.1 49.1 L127.7 49.1 C127.4 48.3 126.9 48.1 126.2 48.1 L124.7 48.1 L124.7 50.5 L125.9 50.5 C126.8 50.5 127.1 50.3 127.2 49.6 L127.5 49.6 L127.5 51.8 L127.2 51.8 C127.1 51.1 126.7 50.9 126 50.9 L124.7 50.9 L124.7 52.4 C124.7 53.3 125 53.5 125.8 53.5 L126.2 53.5 C127.3 53.5 127.7 53.3 128.1 52.4 L128.5 52.4 L128.1 53.9 " id="Fill-4" sketch:type="MSShapeGroup"/>
                <path d="M140.5 53.9 L135.2 53.9 L135.2 53.6 C135.8 53.6 136.1 53.3 136.1 52.6 L136.1 49 C136.1 48.4 135.9 48.1 135.2 48.1 L135.2 47.7 L140.4 47.7 L140.4 49.1 L140.1 49.1 C139.8 48.3 139.3 48.1 138.5 48.1 L137.1 48.1 L137.1 50.5 L138.3 50.5 C139.2 50.5 139.5 50.3 139.5 49.6 L139.9 49.6 L139.9 51.8 L139.5 51.8 C139.4 51.1 139.1 50.9 138.3 50.9 L137.1 50.9 L137.1 52.4 C137.1 53.3 137.3 53.5 138.1 53.5 L138.6 53.5 C139.6 53.5 140.1 53.3 140.5 52.4 L140.9 52.4 L140.5 53.9 " id="Fill-5" sketch:type="MSShapeGroup"/>
                <path d="M150.2 48.1 L149.3 48.1 C148.5 48.1 148.2 48.3 147.7 49.2 L147.4 49.2 L147.5 47.7 L154 47.7 L154.1 49.2 L153.7 49.2 C153.2 48.3 153 48.1 152.2 48.1 L151.2 48.1 L151.2 52.7 C151.2 53.3 151.4 53.6 152.2 53.6 L152.2 53.9 L149.3 53.9 L149.3 53.6 C150 53.6 150.2 53.3 150.2 52.6 L150.2 48.1 " id="Fill-6" sketch:type="MSShapeGroup"/>
                <path d="M88.5 62 L87.6 62 C86.7 62 86.5 62.2 86 63.1 L85.7 63.1 L85.8 61.6 L92.2 61.6 L92.3 63.1 L92 63.1 C91.5 62.2 91.3 62 90.5 62 L89.5 62 L89.5 66.6 C89.5 67.2 89.7 67.5 90.5 67.5 L90.5 67.8 L87.6 67.8 L87.6 67.5 C88.3 67.5 88.5 67.2 88.5 66.5 L88.5 62 " id="Fill-7" sketch:type="MSShapeGroup"/>
                <path d="M100.8 62.5 L99.8 64.9 L101.8 64.9 L100.8 62.5 L100.8 62.5 ZM102 65.4 L99.6 65.4 L99.3 66.3 C99 66.9 99.2 67.4 99.9 67.5 L99.9 67.8 L97.8 67.8 L97.8 67.5 C98.3 67.4 98.5 67.1 98.7 66.5 L100.6 61.9 L100.4 61.6 L101.4 61.6 L103.6 66.9 C103.8 67.3 104 67.5 104.3 67.5 L104.3 67.8 L101.8 67.8 L101.8 67.5 C102.5 67.4 102.7 67.1 102.5 66.5 L102 65.4 L102 65.4 Z" id="Fill-8" sketch:type="MSShapeGroup"/>
                <path d="M112.7 65.6 C112.9 65.9 113 66.2 113.1 66.6 C113.3 66.2 113.4 65.9 113.5 65.5 L114.3 63.7 C114.7 62.8 114.8 62.1 113.8 62 L113.8 61.6 L116 61.6 L116 62 C115.7 62.1 115.5 62.2 115.4 62.3 C115.2 62.5 114.9 63.4 114.6 64.1 L113.5 66.6 C113.4 67 113.2 67.4 113.1 67.9 L112.6 67.9 C112.6 67.6 112.4 67.3 112.3 66.9 L110.4 62.8 C110 62.1 109.9 62 109.6 62 L109.6 61.6 L112 61.6 L112 62 C111.2 62 111.1 62.3 111.5 63.1 L112.7 65.6 " id="Fill-9" sketch:type="MSShapeGroup"/>
                <path d="M127.6 67.8 L122.3 67.8 L122.3 67.5 C123 67.5 123.3 67.2 123.3 66.5 L123.3 62.9 C123.3 62.3 123 62 122.3 62 L122.3 61.6 L127.5 61.6 L127.5 63 L127.2 63 C126.9 62.2 126.4 62 125.7 62 L124.2 62 L124.2 64.4 L125.4 64.4 C126.3 64.4 126.6 64.2 126.7 63.5 L127 63.5 L127 65.7 L126.7 65.7 C126.5 65 126.2 64.8 125.5 64.8 L124.2 64.8 L124.2 66.3 C124.2 67.2 124.5 67.4 125.3 67.4 L125.7 67.4 C126.7 67.4 127.2 67.2 127.6 66.3 L128 66.3 L127.6 67.8 " id="Fill-10" sketch:type="MSShapeGroup"/>
                <path d="M137.4 64.5 C138.4 64.5 138.8 64.1 138.8 63.3 C138.8 62.6 138.3 62 137.2 62 L136.5 62 L136.5 64.5 L137.4 64.5 L137.4 64.5 ZM136.5 66.6 C136.5 67.2 136.8 67.5 137.5 67.5 L137.5 67.8 L134.6 67.8 L134.6 67.5 C135.4 67.5 135.5 67 135.5 66.4 L135.5 62.9 C135.5 62.3 135.3 62 134.6 62 L134.6 61.6 L137.6 61.6 C139.3 61.6 139.9 62.3 139.9 63.2 C139.9 63.9 139.5 64.6 138.2 64.8 L139.5 66.3 C140.2 67 140.7 67.5 141 67.5 L141 67.8 L140.3 67.8 C139.7 67.8 139.4 67.6 138.7 66.8 L137.5 65.3 C137.3 65 137.2 64.9 136.8 64.9 L136.5 64.9 L136.5 66.6 L136.5 66.6 Z" id="Fill-11" sketch:type="MSShapeGroup"/>
                <path d="M148.2 62.7 L147.8 62.3 C147.5 62.1 147.3 62 147 62 L147 61.6 L148.4 61.6 L153.1 66.3 L153.1 63.4 C153.1 62.6 152.9 62 152 62 L152 61.6 L154.4 61.6 L154.4 62 C153.8 62 153.5 62.5 153.5 63.4 L153.5 66.2 C153.5 67.1 153.7 67.3 153.7 67.9 L153.1 67.9 C152.8 67.5 152.6 67.2 152.4 67 L148.6 63.2 L148.6 66.3 C148.6 67.1 149 67.5 149.7 67.5 L149.7 67.8 L147.1 67.8 L147.1 67.5 C147.9 67.5 148.2 67.2 148.2 66.5 L148.2 62.7 " id="Fill-12" sketch:type="MSShapeGroup"/>
                <path d="M86.8 35.1 L86.4 34.7 C86.1 34.5 85.9 34.4 85.5 34.4 L85.5 34 L87 34 L91.6 38.7 L91.6 35.8 C91.6 35 91.5 34.4 90.6 34.4 L90.6 34 L93 34 L93 34.4 C92.3 34.4 92 34.9 92 35.8 L92 38.6 C92 39.5 92.2 39.7 92.2 40.3 L91.6 40.3 C91.4 39.9 91.1 39.6 90.9 39.4 L87.2 35.6 L87.2 38.7 C87.2 39.5 87.5 39.9 88.3 39.9 L88.3 40.2 L85.7 40.2 L85.7 39.9 C86.5 39.9 86.8 39.6 86.8 38.9 L86.8 35.1 " id="Fill-13" sketch:type="MSShapeGroup"/>
                <path d="M103.2 40.2 L97.9 40.2 L97.9 39.9 C98.6 39.9 98.9 39.6 98.9 38.9 L98.9 35.3 C98.9 34.7 98.7 34.4 97.9 34.4 L97.9 34 L103.2 34 L103.2 35.4 L102.8 35.4 C102.5 34.6 102 34.4 101.3 34.4 L99.8 34.4 L99.8 36.8 L101.1 36.8 C101.9 36.8 102.2 36.6 102.3 35.9 L102.6 35.9 L102.6 38.1 L102.3 38.1 C102.2 37.4 101.9 37.2 101.1 37.2 L99.8 37.2 L99.8 38.7 C99.8 39.5 100.1 39.8 100.9 39.8 L101.4 39.8 C102.4 39.8 102.8 39.5 103.2 38.7 L103.7 38.7 L103.2 40.2 " id="Fill-14" sketch:type="MSShapeGroup"/>
                <path d="M111.8 35.3 C111.4 34.5 111.2 34.4 111 34.4 L111 34 L113.1 34 L113.1 34.4 C112.7 34.5 112.6 34.8 112.7 35.2 L113.3 36.4 L113.9 35.3 C114 35 114 34.5 113.5 34.4 L113.5 34 L115.2 34 L115.2 34.4 C114.8 34.5 114.7 34.7 114.3 35.3 L113.5 36.8 L114.3 38.4 C114.4 38.6 114.5 38.8 114.6 39 L116 35.8 C116.3 35 116.3 34.5 115.6 34.4 L115.6 34 L117.5 34 L117.5 34.4 C117.1 34.4 116.9 34.7 116.7 35.2 L114.8 39.4 C114.7 39.7 114.6 40.1 114.5 40.3 L114.1 40.3 C114.1 40.1 114 39.9 113.9 39.8 L113 37.9 L112.3 39.2 C112.2 39.4 111.8 40 111.8 40.3 L111.3 40.3 C111.3 40.1 111.1 39.6 111 39.3 L109.2 35.3 C108.9 34.6 108.8 34.5 108.4 34.4 L108.4 34 L110.5 34 L110.5 34.4 C109.9 34.5 110 35 110.2 35.5 L111 37 C111.1 37.4 111.6 38.5 111.9 39.2 L112.8 37.4 L111.8 35.3 " id="Fill-15" sketch:type="MSShapeGroup"/>
                <path d="M130.1 39 C130.2 39.5 130.4 39.8 131.1 39.9 L131.1 40.2 L128.3 40.2 L128.3 39.9 C129 39.9 129.2 39.5 129.1 38.9 L128.7 35.4 L128.7 35.4 C128.1 37.3 126.8 39 126.6 40.2 L126.2 40.2 C126 39.1 124.6 36.9 124 35.3 L124 35.3 L123.5 38.6 C123.4 39.5 123.6 39.8 124.3 39.9 L124.3 40.2 L122.2 40.2 L122.2 39.9 C122.7 39.9 123 39.6 123.1 38.9 L123.6 35.6 C123.7 34.8 123.6 34.4 122.9 34.4 L122.9 34 L124.7 34 C124.8 35.6 126.2 37.5 126.6 38.9 C127.4 37.3 127.9 36.3 128.2 35.6 C128.5 34.9 128.6 34.5 128.5 34 L130.3 34 L130.3 34.4 C129.6 34.4 129.6 34.8 129.7 35.4 L130.1 39 " id="Fill-16" sketch:type="MSShapeGroup"/>
                <path d="M138.7 34.9 L137.7 37.3 L139.7 37.3 L138.7 34.9 L138.7 34.9 ZM139.9 37.8 L137.5 37.8 L137.2 38.7 C136.9 39.3 137.2 39.8 137.9 39.9 L137.9 40.2 L135.8 40.2 L135.8 39.9 C136.2 39.7 136.4 39.5 136.6 38.9 L138.5 34.3 L138.3 34 L139.3 34 L141.5 39.3 C141.7 39.7 141.9 39.9 142.2 39.9 L142.2 40.2 L139.7 40.2 L139.7 39.9 C140.4 39.8 140.6 39.4 140.4 38.9 L139.9 37.8 L139.9 37.8 Z" id="Fill-17" sketch:type="MSShapeGroup"/>
                <path d="M148.1 35.1 L147.7 34.7 C147.4 34.5 147.2 34.4 146.9 34.4 L146.9 34 L148.4 34 L153 38.7 L153 35.8 C153 35 152.8 34.4 151.9 34.4 L151.9 34 L154.4 34 L154.4 34.4 C153.7 34.4 153.4 34.9 153.4 35.8 L153.4 38.6 C153.4 39.5 153.6 39.7 153.6 40.3 L153 40.3 C152.7 39.9 152.5 39.6 152.3 39.4 L148.5 35.6 L148.5 38.7 C148.5 39.5 148.9 39.9 149.6 39.9 L149.6 40.2 L147 40.2 L147 39.9 C147.8 39.9 148.1 39.6 148.1 38.9 L148.1 35.1 " id="Fill-18" sketch:type="MSShapeGroup"/>
                <path d="M119.7 0.1 L120.4 0.1 C122.4 0.1 124.4 0.7 126.2 1.6 C128.4 2.8 130.3 4.6 131.6 6.8 C132.4 8.2 132.9 9.7 133.1 11.3 C133.2 12 133.5 12.7 133.9 13.2 C134.2 13.7 134.6 14.2 135 14.6 C135.4 14.9 135.9 15.1 136.3 15 C136.8 15 137.2 14.8 137.5 14.5 C137.8 14.1 138 13.6 137.9 13.1 C137.9 12.6 137.6 12.2 137.2 11.9 C136.6 11.4 135.6 11.5 135 12.1 C134.7 12.4 134.4 12.8 134.1 13.2 C134 13 133.9 12.8 133.8 12.6 C134 12.3 134.3 11.9 134.6 11.6 C135 11.3 135.6 11 136.1 11 C136.7 11 137.3 11.2 137.8 11.6 C138.2 12 138.5 12.5 138.5 13.1 C138.6 13.7 138.4 14.3 138 14.8 C137.6 15.3 136.9 15.6 136.2 15.6 C135.6 15.6 135 15.4 134.5 14.9 C133.6 14 132.8 12.8 132.6 11.4 C132.2 8.7 130.8 6 128.7 4.1 C127.6 3.1 126.3 2.3 125 1.7 C122.7 0.7 120.1 0.4 117.7 0.9 C115 1.4 112.5 2.8 110.7 4.8 C109 6.6 107.8 9 107.5 11.5 C107.3 12.7 106.6 13.7 105.8 14.6 C105.6 14.9 105.3 15.1 105 15.3 C104.5 15.6 103.8 15.7 103.2 15.5 C102.3 15.3 101.6 14.4 101.5 13.5 L101.5 13.2 C101.6 12.6 101.9 12 102.3 11.6 C102.8 11.2 103.4 11 104 11 C104.5 11.1 105.1 11.3 105.5 11.7 C105.8 12 106.1 12.3 106.3 12.7 C106.2 12.8 106.1 13 106 13.2 C105.7 12.8 105.4 12.4 105 12.1 C104.6 11.7 104 11.5 103.4 11.6 C102.9 11.8 102.5 12.2 102.2 12.6 C102.1 13.1 102.1 13.6 102.2 14 C102.4 14.4 102.8 14.8 103.3 14.9 C103.7 15.1 104.2 15.1 104.6 14.9 C105 14.7 105.2 14.4 105.4 14.1 C106.2 13.3 106.8 12.4 106.9 11.3 C107.4 8.2 109 5.3 111.4 3.3 C113.7 1.3 116.7 0.2 119.7 0.1 " id="Fill-19" sketch:type="MSShapeGroup"/>
                <path d="M118.9 1.3 C121 1.1 123.3 1.5 125.2 2.4 C127.7 3.6 129.8 5.7 130.9 8.1 C131.7 9.7 132.1 11.5 132.1 13.2 C132.1 15.1 131.7 17 130.8 18.7 C129.7 21 127.8 22.9 125.5 24 C124 24.8 122.3 25.3 120.5 25.4 C118.6 25.5 116.7 25.1 114.9 24.3 C112.3 23.1 110.2 20.9 109 18.3 C108.3 16.6 107.9 14.8 107.9 13 C108 11.3 108.4 9.7 109.1 8.2 C110.2 5.8 112.2 3.8 114.5 2.6 C115.9 1.9 117.4 1.5 118.9 1.3 L118.9 1.3 ZM118.9 1.9 C117.6 2 116.4 2.3 115.2 2.9 C112.9 3.9 110.9 5.8 109.8 8.1 C109 9.6 108.5 11.4 108.5 13.1 C108.4 15.6 109.3 18.2 110.8 20.2 C111.6 21.3 112.7 22.3 113.9 23.1 C115.2 23.9 116.8 24.5 118.4 24.7 C120.3 25 122.3 24.8 124.1 24.1 C126.5 23.2 128.6 21.5 129.9 19.3 C130.8 17.7 131.4 16 131.5 14.2 C131.7 12.4 131.4 10.5 130.7 8.9 C129.6 6.4 127.7 4.4 125.4 3.1 C123.4 2.1 121.1 1.6 118.9 1.9 L118.9 1.9 Z" id="Fill-20" sketch:type="MSShapeGroup"/>
                <path d="M113.3 12.6 C114.4 11 115.5 9.5 116.6 7.9 C117 7.9 117.4 7.9 117.8 7.9 C117.8 10.2 117.8 12.5 117.8 14.8 C118.1 14.8 118.4 14.7 118.5 14.5 C118.8 14.3 118.9 14 118.9 13.7 C119.1 13.7 119.3 13.7 119.5 13.7 C119.4 14.3 119.3 14.9 119.3 15.5 C118.8 15.5 118.3 15.5 117.8 15.5 C117.8 16 117.8 16.4 117.8 16.8 C117.9 17.2 117.9 17.5 118.2 17.7 C118.5 17.9 118.9 18 119.3 18 L119.3 18.6 C117.8 18.6 116.3 18.6 114.9 18.6 C114.9 18.4 114.9 18.2 114.9 18 C115.3 18 115.7 17.9 116 17.7 C116.2 17.5 116.3 17.1 116.3 16.8 C116.3 16.4 116.3 16 116.3 15.5 C114.9 15.5 113.4 15.5 111.9 15.5 C111.9 15.2 111.9 14.9 111.9 14.6 C112.4 13.9 112.8 13.3 113.3 12.6 L113.3 12.6 ZM112.6 14.8 C113.8 14.8 115.1 14.8 116.3 14.8 C116.3 12.9 116.3 11.1 116.3 9.3 C115.1 11.1 113.8 12.9 112.6 14.8 L112.6 14.8 Z" id="Fill-21" sketch:type="MSShapeGroup"/>
                <path d="M122.5 8.6 C123.6 7.8 125.2 7.7 126.4 8.3 C126.9 8.6 127.4 9 127.7 9.6 C127.9 10.2 127.9 11 127.5 11.5 C127.1 12.1 126.5 12.4 125.9 12.7 C126.6 13 127.2 13.5 127.6 14.1 C128.3 15.1 128.3 16.5 127.6 17.5 C127.1 18.1 126.3 18.5 125.5 18.7 C124.7 18.8 123.7 18.8 122.9 18.4 C122.3 18.1 121.7 17.7 121.4 17.1 C121.1 16.6 121.1 16 121.2 15.5 C121.2 15 121.5 14.6 121.8 14.2 C122.3 13.8 122.8 13.5 123.4 13.2 C122.8 12.9 122.2 12.5 121.8 12 C121.4 11.4 121.3 10.7 121.4 10 C121.6 9.4 122 8.9 122.5 8.6 L122.5 8.6 ZM122.9 9.4 C122.6 9.7 122.6 10.2 122.7 10.6 C122.8 11 123.1 11.3 123.4 11.5 C124 11.9 124.6 12.1 125.2 12.4 C125.6 12.2 126 12 126.3 11.6 C126.8 10.9 126.8 9.9 126.2 9.3 C125.7 8.7 125 8.5 124.3 8.6 C123.7 8.7 123.2 8.9 122.9 9.4 L122.9 9.4 ZM122.7 14.6 C122.4 15.2 122.3 15.9 122.5 16.6 C122.6 17.1 122.9 17.5 123.3 17.8 C123.9 18.1 124.6 18.2 125.3 18.1 C125.8 18 126.3 17.7 126.6 17.3 C127 16.8 127 16.1 126.8 15.5 C126.6 15.1 126.3 14.7 125.9 14.5 C125.3 14.1 124.6 13.8 124 13.5 C123.5 13.8 123 14.1 122.7 14.6 L122.7 14.6 Z" id="Fill-22" sketch:type="MSShapeGroup"/>
                <path d="M103.6 12.5 C103.9 12.4 104.1 12.5 104.3 12.7 C104.6 12.8 104.7 13.1 104.7 13.4 C104.6 13.7 104.4 14 104.2 14.1 C103.9 14.3 103.5 14.2 103.2 14 C103 13.8 102.9 13.5 102.9 13.2 C103 12.8 103.3 12.5 103.6 12.5 " id="Fill-23" sketch:type="MSShapeGroup"/>
                <path d="M136.1 12.5 C136.3 12.4 136.6 12.5 136.8 12.7 C137 12.9 137.1 13.2 137.1 13.5 C137 13.8 136.8 14 136.5 14.1 C136.3 14.3 135.9 14.2 135.7 14 C135.4 13.8 135.3 13.4 135.4 13.1 C135.5 12.8 135.7 12.5 136.1 12.5 " id="Fill-24" sketch:type="MSShapeGroup"/>
                <path d="M106.5 14.1 C106.6 13.9 106.8 13.7 106.9 13.6 C107.2 14.1 107.4 14.7 107.5 15.3 C107.8 17 108.3 18.5 109.2 19.9 C110.6 22.2 112.7 24 115.2 25 C118.2 26.3 121.6 26.3 124.6 25.1 C126 24.6 127.3 23.8 128.5 22.8 C130.6 20.9 132 18.3 132.5 15.5 C132.6 14.8 132.8 14.2 133.2 13.6 C133.3 13.7 133.4 13.9 133.5 14.1 C133.3 14.5 133.2 14.9 133.1 15.3 C132.8 17.8 131.6 20.3 129.9 22.2 C128 24.3 125.4 25.7 122.7 26.3 C121.9 26.5 121.1 26.5 120.3 26.6 L119.8 26.6 C119.5 26.6 119.3 26.5 119.1 26.5 C118 26.5 116.9 26.2 115.9 25.9 C113.5 25.1 111.3 23.6 109.7 21.7 C108.2 19.8 107.2 17.6 106.9 15.3 C106.8 14.9 106.7 14.4 106.5 14.1 " id="Fill-25" sketch:type="MSShapeGroup"/>
                <path d="M85.6 25.4 L85.6 24.8 L111.8 24.8 L112.7 25.4 L85.6 25.4 " id="Fill-26" sketch:type="MSShapeGroup"/>
                <path d="M85.6 26.6 L85.6 26.1 L113.9 26.1 L115.4 26.6 L85.6 26.6 " id="Fill-27" sketch:type="MSShapeGroup"/>
                <path d="M154.4 25.4 L154.4 24.8 L128.2 24.8 L127.3 25.4 L154.4 25.4 " id="Fill-28" sketch:type="MSShapeGroup"/>
                <path d="M154.4 26.6 L154.4 26.1 L126.2 26.1 L124.6 26.6 L154.4 26.6 " id="Fill-29" sketch:type="MSShapeGroup"/>
            </g>
        </g>
    </g>
</svg>
