<svg xmlns="http://www.w3.org/2000/svg" xmlns:xlink="http://www.w3.org/1999/xlink" xmlns:sketch="http://www.bohemiancoding.com/sketch/ns" width="240px" height="68px" viewBox="0 0 240 68" version="1.1">
    <!-- Generator: Sketch 3.3 (11970) - http://www.bohemiancoding.com/sketch -->
    <title>Logo_PV</title>
    <desc>Created with Sketch.</desc>
    <defs/>
    <g id="Page-1" stroke="none" stroke-width="1" fill="none" fill-rule="evenodd" sketch:type="MSPage">
        <g id="Logo_PV" sketch:type="MSArtboardGroup" fill="#000000">
            <g id="Group" sketch:type="MSLayerGroup">
                <path d="M73.3 14.1 C75.5 14.1 77.2 15.8 77.2 18 C77.2 20.2 75.5 22 73.3 22 L71 22 L71 25.2 L69.4 25.2 L69.4 14.1 L73.3 14.1 L73.3 14.1 ZM73.3 20.4 C74.6 20.4 75.7 19.3 75.7 18 C75.7 16.7 74.6 15.6 73.3 15.6 L71 15.6 L71 20.4 L73.3 20.4 L73.3 20.4 Z" id="Fill-1" sketch:type="MSShapeGroup"/>
                <path d="M91.3 25.2 L89.4 25.2 L87.4 22 L85 22 L85 25.2 L83.4 25.2 L83.4 14.1 L87.3 14.1 C89.5 14.1 91.2 15.8 91.2 18 C91.2 19.6 90.3 21 89 21.6 L91.3 25.2 L91.3 25.2 ZM85 20.4 L87.3 20.4 C88.6 20.4 89.6 19.3 89.6 18 C89.6 16.7 88.6 15.6 87.3 15.6 L85 15.6 L85 20.4 L85 20.4 Z" id="Fill-2" sketch:type="MSShapeGroup"/>
                <path d="M98.4 14.1 L100 14.1 L100 25.2 L98.4 25.2 L98.4 14.1 Z" id="Fill-3" sketch:type="MSShapeGroup"/>
                <path d="M116.9 14.1 L116.9 25.2 L116.8 25.2 L109.1 17.7 L109.1 25.2 L107.6 25.2 L107.6 14.1 L107.6 14.1 L115.3 21.6 L115.3 14.1 L116.9 14.1 " id="Fill-4" sketch:type="MSShapeGroup"/>
                <path d="M131.7 22 L132.9 23 C131.9 24.3 130.3 25.2 128.6 25.2 C125.6 25.2 123.1 22.7 123.1 19.6 C123.1 16.6 125.6 14.1 128.6 14.1 C130.3 14.1 131.9 14.9 132.9 16.3 L131.7 17.2 C131 16.3 129.8 15.6 128.6 15.6 C126.4 15.6 124.7 17.4 124.7 19.6 C124.7 21.8 126.4 23.6 128.6 23.6 C129.8 23.6 131 23 131.7 22 " id="Fill-5" sketch:type="MSShapeGroup"/>
                <path d="M140.7 15.6 L140.7 20 L145.3 20 L145.3 21.6 L140.7 21.6 L140.7 23.6 L146.9 23.6 L146.9 25.2 L139.1 25.2 L139.1 14.1 L146.9 14.1 L146.9 15.6 L140.7 15.6 " id="Fill-6" sketch:type="MSShapeGroup"/>
                <path d="M155.1 17.2 C155.1 18.1 155.8 18.8 156.7 18.8 C158.4 18.8 159.8 20.3 159.8 22 C159.8 23.8 158.4 25.2 156.7 25.2 C155.3 25.2 154.2 24.3 153.7 23.1 L155.2 22.5 C155.4 23.1 156 23.6 156.7 23.6 C157.5 23.6 158.2 22.9 158.2 22 C158.2 21.1 157.5 20.4 156.7 20.4 C155 20.4 153.6 19 153.6 17.2 C153.6 15.5 155 14.1 156.7 14.1 C158 14.1 159.2 14.9 159.6 16.2 L158.1 16.7 C157.9 16.1 157.3 15.6 156.7 15.6 C155.8 15.6 155.1 16.4 155.1 17.2 " id="Fill-7" sketch:type="MSShapeGroup"/>
                <path d="M167.3 17.2 C167.3 18.1 168 18.8 168.8 18.8 C170.5 18.8 171.9 20.3 171.9 22 C171.9 23.8 170.5 25.2 168.8 25.2 C167.5 25.2 166.3 24.3 165.9 23.1 L167.3 22.5 C167.5 23.1 168.1 23.6 168.8 23.6 C169.7 23.6 170.4 22.9 170.4 22 C170.4 21.1 169.7 20.4 168.8 20.4 C167.1 20.4 165.7 19 165.7 17.2 C165.7 15.5 167.1 14.1 168.8 14.1 C170.2 14.1 171.3 14.9 171.7 16.2 L170.3 16.7 C170.1 16.1 169.5 15.6 168.8 15.6 C168 15.6 167.3 16.4 167.3 17.2 " id="Fill-8" sketch:type="MSShapeGroup"/>
                <path d="M58.3 37.3 L49.2 54.2 L48.9 54.2 L39.8 37.3 L42.5 37.3 L49.1 49.5 L55.6 37.3 L58.3 37.3 " id="Fill-9" sketch:type="MSShapeGroup"/>
                <path d="M66.6 37.3 L68.9 37.3 L68.9 54.2 L66.6 54.2 L66.6 37.3 Z" id="Fill-10" sketch:type="MSShapeGroup"/>
                <path d="M91.4 49.4 L93.3 50.9 C91.8 52.9 89.4 54.2 86.7 54.2 C82.1 54.2 78.4 50.4 78.4 45.8 C78.4 41.1 82.1 37.3 86.7 37.3 C89.4 37.3 91.8 38.6 93.3 40.6 L91.4 42.1 C90.3 40.6 88.6 39.7 86.7 39.7 C83.4 39.7 80.8 42.4 80.8 45.8 C80.8 49.1 83.4 51.8 86.7 51.8 C88.6 51.8 90.3 50.9 91.4 49.4 " id="Fill-11" sketch:type="MSShapeGroup"/>
                <path d="M114.9 37.3 L114.9 39.7 L109 39.7 L109 54.2 L106.6 54.2 L106.6 39.7 L100.7 39.7 L100.7 37.3 L114.9 37.3 " id="Fill-12" sketch:type="MSShapeGroup"/>
                <path d="M129.6 54.2 C125 54.2 121.3 50.4 121.3 45.8 C121.3 41.1 125 37.3 129.6 37.3 C134.2 37.3 137.9 41.1 137.9 45.8 C137.9 50.4 134.2 54.2 129.6 54.2 L129.6 54.2 ZM123.7 45.8 C123.7 49.1 126.3 51.8 129.6 51.8 C132.8 51.8 135.5 49.1 135.5 45.8 C135.5 42.4 132.8 39.7 129.6 39.7 C126.3 39.7 123.7 42.4 123.7 45.8 L123.7 45.8 Z" id="Fill-13" sketch:type="MSShapeGroup"/>
                <path d="M159.1 54.2 L156.3 54.2 L153.2 49.4 L153 49.4 L149.5 49.4 L149.5 54.2 L147.1 54.2 L147.1 37.3 L153 37.3 C156.3 37.3 159 40 159 43.3 C159 45.7 157.6 47.8 155.6 48.8 L159.1 54.2 L159.1 54.2 ZM149.5 47 L153 47 C155 47 156.6 45.3 156.6 43.3 C156.6 41.3 155 39.7 153 39.7 L149.5 39.7 L149.5 47 L149.5 47 Z" id="Fill-14" sketch:type="MSShapeGroup"/>
                <path d="M169.9 37.3 L172.3 37.3 L172.3 54.2 L169.9 54.2 L169.9 37.3 Z" id="Fill-15" sketch:type="MSShapeGroup"/>
                <path d="M195.9 51.2 L186 51.2 L184.4 54.2 L181.7 54.2 L191 36.9 L200.2 54.2 L197.5 54.2 L195.9 51.2 L195.9 51.2 ZM194.6 48.8 L191 42 L187.3 48.8 L194.6 48.8 L194.6 48.8 Z" id="Fill-16" sketch:type="MSShapeGroup"/>
            </g>
        </g>
    </g>
</svg>
